<svg width="120" height="65" viewBox="0 0 120 65" fill="none" xmlns="http://www.w3.org/2000/svg">
<g clip-path="url(#clip0_11154_41002)">
<path d="M0 56.1186C0 50.6948 3.30802 48.0122 7.03382 48.0122C9.38901 48.0122 10.9429 48.816 12.1009 50.4554H12.399V42.5273H16.5108V63.8072H12.697L12.399 61.7525H12.1009C10.938 63.3601 9.41344 64.2249 7.03382 64.2249C3.30802 64.2249 0 61.5717 0 56.1186ZM12.4894 56.1186C12.4894 53.1868 10.7792 51.4082 8.33601 51.4082C5.9515 51.4082 4.22176 52.9889 4.22176 56.1186C4.22176 59.2482 5.96128 60.8265 8.34579 60.8265C10.7889 60.8265 12.4894 59.0381 12.4894 56.1186Z" fill="#333333"/>
<path d="M18.8979 56.1191C18.8979 50.6635 22.206 48.0127 25.9318 48.0127C28.287 48.0127 29.8408 48.8458 30.9988 50.4558H31.2969L31.595 48.428H35.4087V63.8199H31.6023L31.3042 61.7652H31.0062C29.8432 63.4045 28.3187 64.2376 25.9391 64.2376C22.206 64.2254 18.8979 61.5428 18.8979 56.1191ZM31.3849 56.1191C31.3849 53.1873 29.6869 51.4087 27.2437 51.4087C24.8592 51.4087 23.1295 52.9894 23.1295 56.1191C23.1295 59.2487 24.8592 60.827 27.2437 60.827C29.6869 60.827 31.3849 59.0386 31.3849 56.1191Z" fill="#333333"/>
<path d="M38.3306 63.8073V60.2916L46.4076 52.2439V51.9459H38.3306V48.4277H51.8631V51.9459L43.8179 59.9936V60.2916H51.8656V63.8073H38.3306Z" fill="#333333"/>
<path d="M54.1865 63.8073V60.2916L62.2636 52.2439V51.9459H54.1865V48.4277H67.7191V51.9459L59.6714 59.9936V60.2916H67.7191V63.8073H54.1865Z" fill="#333333"/>
<path d="M70.6411 63.8072V42.5273H74.7945V63.8072H70.6411Z" fill="#333333"/>
<path d="M77.9439 44.1668C77.9439 43.6894 78.0855 43.2227 78.3507 42.8257C78.616 42.4288 78.993 42.1194 79.434 41.9367C79.8751 41.754 80.3604 41.7062 80.8287 41.7993C81.2969 41.8924 81.727 42.1224 82.0646 42.4599C82.4022 42.7975 82.6321 43.2276 82.7252 43.6958C82.8183 44.1641 82.7705 44.6494 82.5878 45.0905C82.4051 45.5316 82.0957 45.9086 81.6988 46.1738C81.3018 46.439 80.8352 46.5806 80.3577 46.5806C80.0376 46.5922 79.7186 46.5377 79.4204 46.4205C79.1223 46.3034 78.8515 46.126 78.625 45.8995C78.3985 45.673 78.2212 45.4022 78.104 45.1041C77.9868 44.806 77.9323 44.4869 77.9439 44.1668ZM78.3006 63.8072V48.4154H82.454V63.8072H78.3006Z" fill="#333333"/>
<path d="M85.9595 63.8081V55.2571C85.9595 50.19 88.9401 48.0156 93.7775 48.0156C98.615 48.0156 101.596 50.1314 101.596 55.1985V63.8081H97.4643V55.2082C97.4643 52.7944 96.184 51.5435 93.7702 51.5435C91.3564 51.5435 90.1055 52.8262 90.1055 55.2693V63.8203L85.9595 63.8081Z" fill="#333333"/>
<path d="M105.097 63.8072V42.5273H109.238V54.4499H109.538L114.965 48.4275H119.912L113.384 55.3734L120 63.8072H114.869L109.538 56.8931H109.24V63.8072H105.097Z" fill="#333333"/>
<path fill-rule="evenodd" clip-rule="evenodd" d="M54.7205 0C56.2538 0.0203991 57.7702 0.254989 59.2253 0.693571C58.5453 0.968959 57.8824 1.28855 57.2398 1.65233C54.7511 3.06667 52.6738 5.10659 51.2118 7.57148C51.0113 7.91487 50.8209 8.26165 50.6475 8.61864C50.5693 8.65604 50.4911 8.69684 50.4129 8.73763C49.0223 9.472 47.8562 10.5668 47.0402 11.9131C46.2243 13.256 45.7925 14.7996 45.7857 16.3703V32.7304H38V16.3669C38 7.34029 45.3709 0.00340007 54.4621 0.00340007H54.7205V0Z" fill="#5353D3"/>
<path d="M66.0456 0.0102118L66.0388 1.15913e-05C63.1761 -0.00338827 60.3611 0.74118 57.8724 2.15552C55.3803 3.57326 53.3063 5.61318 51.8444 8.07467C50.3213 10.6586 49.5495 13.5892 49.5801 16.5437C49.5733 16.7919 49.5529 17.0401 49.6039 17.2747C49.6039 17.2781 49.6039 17.2815 49.6039 17.2883C49.6209 17.5807 49.6447 17.8731 49.6753 18.1654C49.6821 18.2504 49.6923 18.3354 49.7025 18.417C49.7059 18.434 49.7093 18.451 49.7093 18.468C49.7365 18.672 49.7671 18.876 49.8011 19.08C49.8453 19.3724 49.8929 19.6614 49.9575 19.9504C50.2601 21.3205 51.144 23.2686 51.4398 23.9452C51.994 24.0438 53.5885 24.3022 56.0874 23.8024C58.0389 23.4114 59.0725 22.7213 59.5791 22.1807C59.5723 22.1671 59.5621 22.1535 59.5519 22.1399C59.4159 21.9767 59.2765 21.8169 59.1439 21.6503C58.4673 20.7935 58.0083 19.828 57.7126 18.7808C57.5596 18.2436 57.4542 17.6997 57.4168 17.1455C57.3692 16.4247 57.4168 15.7108 57.5324 14.99C57.6378 14.3372 57.8894 13.5858 58.1103 13.0079C58.4911 12.0015 59.0657 11.0767 59.8171 10.305C59.8511 10.271 59.8851 10.2336 59.9191 10.1996C60.0585 10.0602 60.2013 9.93099 60.3509 9.8018C61.8366 8.50985 63.8595 7.82988 65.8314 7.75169H68.5853L74.7186 0.00681172H66.0456V0.0102118Z" fill="#F99BF0"/>
<path d="M82.5073 0.00976562H74.7182V7.76144V16.3903C74.7114 17.9508 74.3 19.5487 73.5384 20.8917C73.2393 21.4187 72.8823 21.915 72.4709 22.3842C71.8589 23.0812 70.2474 24.125 70.159 24.1692C70.0672 24.3425 69.8802 24.6961 69.7272 24.9579C69.6422 25.1177 69.5572 25.2741 69.4654 25.4305C68.9622 26.2873 68.3741 27.0828 67.7281 27.8308C67.4561 28.1538 67.1671 28.47 66.8611 28.7726C66.5823 29.0513 66.2865 29.3199 65.984 29.5715C65.7528 29.7653 65.5148 29.9557 65.2768 30.1393C63.7944 31.3157 62.7405 31.846 61.1392 32.3016C61.1392 32.3016 61.1732 32.3186 61.18 32.322C61.8497 32.56 63.0057 32.7402 63.8828 32.866C64.6818 32.9782 65.4842 33.0054 66.2899 32.9986C66.4667 32.9986 66.6469 33.002 66.8237 32.9918C67.1875 32.9714 67.5581 32.9612 67.9185 32.9068C68.4183 32.832 68.9214 32.7538 69.4178 32.6518C70.6656 32.3968 71.8589 31.9888 73.0115 31.4584C73.7424 31.1219 74.436 30.7105 75.1126 30.2719C75.7687 29.8435 76.3943 29.3777 76.9655 28.844C77.6693 28.1912 78.3458 27.5112 78.9374 26.753C79.546 25.9779 80.0866 25.1619 80.5489 24.2949C81.0963 23.2682 81.5281 22.1938 81.8443 21.0753C81.9225 20.8033 81.9939 20.4667 82.0585 20.1913C82.3509 18.9708 82.5073 17.6992 82.5073 16.3903V0.00976562Z" fill="#F99BF0"/>
<path d="M70.9956 16.2786C70.9956 14.9765 70.8154 13.5553 70.5094 12.2906L70.506 12.3008C70.1694 10.9613 69.6628 9.67271 68.9964 8.46576C68.9964 8.46576 67.9085 8.39776 66.1304 8.46916C64.1823 8.63575 62.3395 9.23413 60.9082 10.4445C61.4522 11.0327 61.9145 11.6922 62.2783 12.4096C63.0943 14.0279 63.3799 15.8673 63.0909 17.6556C62.9209 18.7061 62.5571 19.7091 62.0267 20.6135H62.0301C61.6936 21.1812 61.2856 21.715 60.8232 22.2182C59.844 23.2823 58.6371 23.9827 57.2635 24.4145C56.2946 24.7171 55.2984 24.8531 54.2921 24.9007C53.6529 24.9313 53.0103 24.9177 52.3711 24.9245C52.276 24.9245 52.1808 24.9245 52.0856 24.9211C52.072 24.9211 52.0584 24.9211 52.0448 24.9245L45.7822 32.7271C45.84 32.7271 49.3725 32.7305 50.7392 32.7305C52.021 32.7305 53.2993 32.7305 54.5811 32.7305C55.686 32.7339 56.7808 32.6183 57.8619 32.394C61.0476 31.7344 63.8015 30.2622 66.1202 27.9877C67.6705 26.468 68.8673 24.7001 69.7138 22.701C70.3088 21.29 70.6998 19.8315 70.8766 18.3219C70.8834 18.3219 70.999 16.962 70.9956 16.2786Z" fill="#5353D3"/>
</g>
<defs>
<clipPath id="clip0_11154_41002">
<rect width="120" height="64.2376" fill="white"/>
</clipPath>
</defs>
</svg>