<svg width="48" height="48" viewBox="0 0 48 48" fill="none" xmlns="http://www.w3.org/2000/svg">
<rect width="48" height="48" rx="12" fill="black"/>
<path d="M30.7045 23.7631C30.729 21.9104 31.7481 20.1574 33.3648 19.187C32.3449 17.7649 30.6366 16.8632 28.8592 16.8089C26.9636 16.6147 25.1258 17.9164 24.1598 17.9164C23.1751 17.9164 21.6878 16.8282 20.0862 16.8604C17.9986 16.9262 16.0524 18.085 15.0368 19.8669C12.8535 23.5573 14.482 28.9809 16.5734 31.964C17.6198 33.4247 18.8427 35.0564 20.4428 34.9985C22.0086 34.9351 22.5935 34.0237 24.4836 34.0237C26.3561 34.0237 26.9048 34.9985 28.5374 34.9617C30.2176 34.9351 31.2762 33.4945 32.2859 32.02C33.0377 30.9792 33.6162 29.8288 34 28.6116C32.0254 27.7962 30.7068 25.8562 30.7045 23.7631Z" fill="white"/>
<path d="M27.6208 14.8471C28.5369 13.7734 28.9882 12.3934 28.8789 11C27.4793 11.1435 26.1864 11.7966 25.2579 12.8291C24.35 13.8379 23.8775 15.1937 23.9668 16.5338C25.3669 16.5479 26.7434 15.9125 27.6208 14.8471Z" fill="white"/>
</svg>
