<svg width="140" height="48" viewBox="0 0 140 48" fill="none" xmlns="http://www.w3.org/2000/svg">
<rect width="140" height="48" rx="12" fill="black"/>
<path d="M46.362 24.206H48.602V25.676C48.056 26.068 47.384 26.292 46.726 26.292C45.088 26.292 43.702 24.864 43.702 23.184C43.702 21.518 45.088 20.09 46.726 20.09C47.608 20.09 48.546 20.51 49.12 21.168L50.618 19.824C49.652 18.816 48.168 18.214 46.726 18.214C43.94 18.214 41.574 20.482 41.574 23.184C41.574 25.886 43.94 28.168 46.726 28.168C48.168 28.168 49.652 27.566 50.618 26.558V22.596H46.362V24.206ZM55.5343 20.594C54.5263 20.594 53.5323 20.874 52.5103 21.392L53.1963 22.75C53.7703 22.456 54.4003 22.232 55.0723 22.232C56.2623 22.232 56.7383 22.904 56.7383 23.674V23.814C56.1223 23.576 55.4783 23.45 54.8903 23.45C53.2103 23.45 51.8803 24.43 51.8803 25.858C51.8803 27.244 53.0703 28.168 54.6103 28.168C55.3943 28.168 56.2203 27.86 56.7383 27.272V28H58.7123V23.674C58.7123 21.784 57.4243 20.594 55.5343 20.594ZM55.0723 26.754C54.3723 26.754 53.8543 26.39 53.8543 25.802C53.8543 25.214 54.4423 24.78 55.1843 24.78C55.7443 24.78 56.2763 24.878 56.7383 25.046V25.718C56.5983 26.39 55.8563 26.754 55.0723 26.754ZM60.4351 28H62.4791V18.214H60.4351V28ZM67.4972 20.594C66.4892 20.594 65.4952 20.874 64.4732 21.392L65.1592 22.75C65.7332 22.456 66.3632 22.232 67.0352 22.232C68.2252 22.232 68.7012 22.904 68.7012 23.674V23.814C68.0852 23.576 67.4412 23.45 66.8532 23.45C65.1732 23.45 63.8432 24.43 63.8432 25.858C63.8432 27.244 65.0332 28.168 66.5732 28.168C67.3572 28.168 68.1832 27.86 68.7012 27.272V28H70.6752V23.674C70.6752 21.784 69.3872 20.594 67.4972 20.594ZM67.0352 26.754C66.3352 26.754 65.8172 26.39 65.8172 25.802C65.8172 25.214 66.4052 24.78 67.1472 24.78C67.7072 24.78 68.2392 24.878 68.7012 25.046V25.718C68.5612 26.39 67.8192 26.754 67.0352 26.754ZM79.216 28L76.556 24.276L79.09 20.762H76.934L75.478 22.778L74.036 20.762H71.824L74.372 24.318L71.712 28H73.868L75.45 25.816L77.018 28H79.216ZM81.9796 30.52C83.1136 30.52 84.0376 29.778 84.5836 28.364L87.5516 20.762H85.4656L83.6596 25.844L81.7556 20.762H79.6416L82.6516 28.07L82.3996 28.602C82.2456 28.868 81.9376 28.994 81.5456 28.994C81.3076 28.994 80.9436 28.868 80.5936 28.672L80.1596 30.072C80.6496 30.338 81.3776 30.52 81.9796 30.52ZM96.342 28.168C98.694 28.168 100.08 26.95 100.08 25.116C100.08 23.338 98.708 22.722 96.636 22.26C95.152 21.924 94.578 21.7 94.578 21C94.578 20.426 95.11 19.964 95.992 19.964C96.916 19.964 97.882 20.342 98.736 21.028L99.814 19.544C98.834 18.704 97.616 18.214 96.048 18.214C93.948 18.214 92.492 19.432 92.492 21.21C92.492 23.072 93.934 23.646 95.964 24.108C97.434 24.444 97.994 24.654 97.994 25.34C97.994 25.942 97.462 26.418 96.426 26.418C95.208 26.418 94.172 25.942 93.262 25.158L92.072 26.572C93.192 27.608 94.676 28.168 96.342 28.168ZM105.313 26.208C105.173 26.348 104.893 26.446 104.613 26.446C104.235 26.446 103.927 26.11 103.927 25.634V22.414H105.495V20.762H103.927V18.774H101.967V20.762H100.973V22.414H101.967V25.956C101.967 27.258 102.863 28.168 104.137 28.168C104.725 28.168 105.383 27.916 105.803 27.538L105.313 26.208ZM110.64 28.168C112.782 28.168 114.574 26.432 114.574 24.374C114.574 22.316 112.782 20.594 110.64 20.594C108.484 20.594 106.678 22.316 106.678 24.374C106.678 26.432 108.484 28.168 110.64 28.168ZM110.64 26.446C109.548 26.446 108.638 25.494 108.638 24.374C108.638 23.254 109.548 22.316 110.64 22.316C111.718 22.316 112.628 23.254 112.628 24.374C112.628 25.494 111.718 26.446 110.64 26.446ZM118.001 22.106V20.762H115.957V28H118.001V24.542C118.001 23.184 118.967 22.316 120.479 22.316V20.594C119.373 20.594 118.477 21.168 118.001 22.106ZM125.074 26.362C124.22 26.362 123.59 25.83 123.352 25.046H128.574C128.574 22.316 127.244 20.594 124.976 20.594C122.862 20.594 121.252 22.176 121.252 24.36C121.252 26.586 122.932 28.168 125.088 28.168C126.152 28.168 127.398 27.72 128.042 27.048L126.74 25.718C126.348 26.096 125.648 26.362 125.074 26.362ZM125.06 22.4C125.886 22.4 126.418 22.862 126.614 23.576H123.38C123.646 22.848 124.29 22.4 125.06 22.4Z" fill="white"/>
<rect x="10" y="11" width="26" height="26" rx="10" fill="url(#paint0_angular_2337_28395)"/>
<path fill-rule="evenodd" clip-rule="evenodd" d="M26.7914 20.5703L26.738 20.335C26.738 18.2741 25.0609 16.5977 22.9997 16.5977C20.9385 16.5977 19.2617 18.2741 19.2617 20.335L19.2081 20.5703H16.1387L16.966 28.2835C17.1318 29.8524 18.4549 31.043 20.0326 31.043H25.9669C27.5446 31.043 28.8677 29.8524 29.0334 28.2837L29.8609 20.5703H26.7914ZM20.8331 20.5703L20.8934 20.335C20.8934 19.1737 21.8383 18.229 22.9997 18.229C24.1613 18.229 25.1063 19.1737 25.1063 20.335L25.1664 20.5703H20.8331Z" fill="white"/>
<defs>
<radialGradient id="paint0_angular_2337_28395" cx="0" cy="0" r="1" gradientUnits="userSpaceOnUse" gradientTransform="translate(23 24) rotate(88.8309) scale(13.0027)">
<stop offset="0.000415415" stop-color="#F4605E"/>
<stop offset="0.0642377" stop-color="#E94B80"/>
<stop offset="0.128396" stop-color="#DE33A4"/>
<stop offset="0.186654" stop-color="#D41AC8"/>
<stop offset="0.250949" stop-color="#CB06E5"/>
<stop offset="0.281719" stop-color="#C902EC"/>
<stop offset="0.316858" stop-color="#CB04E5"/>
<stop offset="0.371347" stop-color="#D108D3"/>
<stop offset="0.43351" stop-color="#D80DBA"/>
<stop offset="0.504024" stop-color="#E1139E"/>
<stop offset="0.59576" stop-color="#EC1E7B"/>
<stop offset="0.673288" stop-color="#F22A65"/>
<stop offset="0.713795" stop-color="#F5355B"/>
<stop offset="0.754495" stop-color="#F74452"/>
<stop offset="0.818581" stop-color="#F75651"/>
<stop offset="0.878478" stop-color="#F76051"/>
<stop offset="0.938046" stop-color="#F76551"/>
</radialGradient>
</defs>
</svg>
