<svg width="168" height="32" viewBox="0 0 168 32" fill="none" xmlns="http://www.w3.org/2000/svg">
    <g>
        <path d="M51.6836 17.1103C51.6836 11.8297 54.8899 9.21789 58.5011 9.21789C60.7838 9.21789 62.2899 10.0028 63.4123 11.5965H63.7012V3.87305H67.6865V24.5911H63.9901L63.7012 22.5812H63.4123C62.2851 24.1487 60.8075 24.9907 58.5011 24.9907C54.8899 24.9979 51.6836 22.4147 51.6836 17.1103ZM63.7864 17.1103C63.7864 14.2559 62.1288 12.5266 59.7608 12.5266C57.4497 12.5266 55.7731 14.0656 55.7731 17.1103C55.7731 20.1549 57.4497 21.6963 59.7608 21.6963C62.1407 21.6892 63.7864 19.948 63.7864 17.1103Z" fill="#333333"/>
        <path d="M70 17.1092C70 11.8 73.2063 9.2168 76.8151 9.2168C79.0979 9.2168 80.6039 10.0303 81.7287 11.5955H82.0152L82.3041 9.62117H86.0029V24.6067H82.3041L82.0152 22.5801H81.7287C80.6015 24.1762 79.1239 24.9897 76.8151 24.9897C73.2063 24.9968 70 22.385 70 17.1092ZM82.1005 17.1092C82.1005 14.2548 80.4429 12.5255 78.0749 12.5255C75.7637 12.5255 74.0895 14.0645 74.0895 17.1092C74.0895 20.1538 75.7637 21.6952 78.0749 21.6952C80.4571 21.6881 82.1005 19.9469 82.1005 17.1092Z" fill="#333333"/>
        <path d="M88.8359 24.5908V21.1656L96.6645 13.3326V13.0425H88.8359V9.61719H101.95V13.0425L94.1497 20.8754V21.1656H101.95V24.5908H88.8359Z" fill="#333333"/>
        <path d="M104.204 24.5908V21.1656L112.033 13.3326V13.0425H104.204V9.61719H117.32V13.0425L109.52 20.8754V21.1656H117.32V24.5908H104.204Z" fill="#333333"/>
        <path d="M120.15 24.5911V3.87305H124.176V24.5911H120.15Z" fill="#333333"/>
        <path d="M127.228 5.46577C127.228 5.00049 127.365 4.54566 127.623 4.1588C127.88 3.77193 128.246 3.47041 128.674 3.29236C129.102 3.1143 129.573 3.06771 130.027 3.15848C130.481 3.24926 130.898 3.4733 131.226 3.80231C131.554 4.13131 131.777 4.55048 131.867 5.00682C131.957 5.46316 131.911 5.93616 131.734 6.36602C131.556 6.79588 131.256 7.1633 130.871 7.4218C130.486 7.68029 130.033 7.81826 129.57 7.81826C129.259 7.82958 128.95 7.77647 128.661 7.66225C128.371 7.54803 128.109 7.37516 127.889 7.15442C127.669 6.93367 127.497 6.66979 127.383 6.37925C127.27 6.08871 127.217 5.77775 127.228 5.46577ZM127.576 24.5902V9.60463H131.602V24.5902H127.576Z" fill="#333333"/>
        <path d="M135 24.5909V16.2656C135 11.3323 137.889 9.21289 142.578 9.21289C147.266 9.21289 150.155 11.2728 150.155 16.2061V24.5933H146.151V16.2038C146.151 13.8536 144.91 12.6358 142.568 12.6358C140.226 12.6358 139.016 13.8822 139.016 16.2632V24.5885L135 24.5909Z" fill="#333333"/>
        <path d="M153.546 24.5911V3.87305H157.571V15.4785H157.86L163.117 9.6175H167.913L161.588 16.3776L168 24.5911H163.027L157.856 17.8595H157.567V24.5911H153.546Z" fill="#333333"/>
    </g>
</svg>
