<svg width="116" height="84" viewBox="0 0 116 84" fill="none" xmlns="http://www.w3.org/2000/svg">
<g clip-path="url(#clip0_2967_26430)">
<path d="M115.995 0.240234V42.2245C115.995 65.407 96.7523 84.199 73.0223 84.199C72.7876 84.199 72.5615 84.199 72.3367 84.1892C67.163 84.1128 62.2154 83.149 57.6495 81.4362C48.7339 78.0956 41.2378 71.9437 36.3297 64.0778H36.3198V64.0681C34.0369 60.4289 32.3123 56.4243 31.2549 52.1588C33.1462 44.5527 37.1525 37.7659 42.6301 32.4127C46.3633 28.7638 50.7822 25.7886 55.6804 23.6813C60.7849 21.4769 66.4181 20.2157 72.3367 20.1283C66.9085 20.2825 61.9609 22.3036 58.14 25.5677C57.7484 25.8954 57.3753 26.2317 57.0133 26.5886C52.9181 30.5834 50.3906 36.1199 50.3906 42.2232C50.3906 45.7945 51.2627 49.1739 52.8007 52.1588C54.0645 54.6132 55.7891 56.8091 57.8558 58.6287C58.6304 59.3121 59.4531 59.9482 60.3154 60.5163C63.94 62.9234 68.3106 64.3291 73.0235 64.3291C75.4733 64.3291 77.8241 63.954 80.0293 63.2414C83.4586 62.1538 86.5346 60.2857 89.0239 57.8603C93.1191 53.8558 95.6466 48.329 95.6466 42.2257V20.121H95.617V0.240234H115.995Z" fill="url(#paint0_linear_2967_26430)"/>
<path d="M84.7405 32.039C82.8492 39.6354 78.8429 46.4318 73.3555 51.785C69.6222 55.4339 65.2034 58.4091 60.3151 60.5164C55.2106 62.7208 49.5773 63.982 43.6587 64.0694C49.0869 63.9153 54.0345 61.8844 57.8555 58.6301C58.2471 58.3023 58.6202 57.9661 58.9821 57.6092C63.0674 53.6143 65.6049 48.0779 65.6049 41.9745C65.6049 38.4033 64.7327 35.0239 63.1947 32.039C61.9309 29.5845 60.2064 27.3886 58.1396 25.569C57.365 24.8856 56.5423 24.2495 55.68 23.6814C52.0555 21.2743 47.6848 19.8687 42.9719 19.8687C40.5222 19.8687 38.1713 20.2438 35.9662 20.9466C32.5368 22.0342 29.4608 23.9024 26.9715 26.3374C22.8763 30.342 20.3389 35.8687 20.3389 41.9721V83.9466H0V41.9745C0 18.792 19.2432 0 42.9731 0C43.2078 0 43.4339 2.22484e-07 43.6587 0.00971121C48.8225 0.0861852 53.7701 1.05 58.336 2.76278C67.2516 6.09364 74.7379 12.2455 79.6459 20.1017C79.6657 20.1017 79.6657 20.1114 79.6657 20.1212C79.6756 20.1309 79.6756 20.1309 79.6756 20.1406V20.1503C81.9573 23.7786 83.6818 27.7843 84.7405 32.039Z" fill="url(#paint1_linear_2967_26430)"/>
<path d="M73.0217 0.240234H95.6151L79.6457 20.1016C79.6654 20.1016 79.6654 20.1113 79.6654 20.121H73.0229C72.7882 20.121 72.5621 20.121 72.3373 20.1308C66.4199 20.2169 60.7855 21.4782 55.681 23.6838C50.7816 25.7923 46.3639 28.7675 42.6307 32.4151C37.1543 37.7683 33.1468 44.5551 31.2555 52.1612C30.4624 48.9748 30.0498 45.6439 30.0498 42.2257C30.0498 34.4569 32.2055 27.1882 35.9672 20.9489C37.819 17.8778 40.0624 15.0568 42.6294 12.544C47.0286 8.25058 52.3776 4.87116 58.3345 2.76266C62.9202 1.12515 67.8591 0.240234 73.0217 0.240234Z" fill="#F99BF0"/>
<path d="M85.9447 41.9746C85.9447 49.7337 83.789 57.0024 80.0273 63.2417C78.1657 66.3225 75.9222 69.1435 73.3552 71.6562C68.9561 75.9497 63.6169 79.3291 57.6501 81.4376C53.0644 83.0642 48.1267 83.9503 42.9728 83.9503H20.3398L36.3291 64.0792H42.9716C43.2063 64.0792 43.4324 64.0792 43.6572 64.0695C49.5746 63.9833 55.209 62.7221 60.3135 60.5165C65.2031 58.408 69.6219 55.4328 73.3539 51.7851C78.8402 46.432 82.8476 39.6355 84.739 32.0391C85.5234 35.2255 85.9447 38.5466 85.9447 41.9746Z" fill="#5353D3"/>
<path d="M79.6742 20.14L79.6348 20.1203L79.6446 20.1006C79.6643 20.1006 79.6643 20.1104 79.6643 20.1203C79.6742 20.1302 79.6742 20.1302 79.6742 20.14Z" fill="white"/>
</g>
<defs>
<linearGradient id="paint0_linear_2967_26430" x1="31.2551" y1="42.2198" x2="115.995" y2="42.2198" gradientUnits="userSpaceOnUse">
<stop offset="0.00155158" stop-color="#7E2EB7"/>
<stop offset="0.6154" stop-color="#FF99EC"/>
</linearGradient>
<linearGradient id="paint1_linear_2967_26430" x1="125.681" y1="35.9151" x2="27.7655" y2="42.4012" gradientUnits="userSpaceOnUse">
<stop offset="0.2292" stop-color="#2C2C84"/>
<stop offset="1" stop-color="#4A4AC6"/>
</linearGradient>
<clipPath id="clip0_2967_26430">
<rect width="116" height="84" fill="white"/>
</clipPath>
</defs>
</svg>
