<svg width="434" height="282" viewBox="0 0 434 282" fill="none" xmlns="http://www.w3.org/2000/svg">
<path fill-rule="evenodd" clip-rule="evenodd" d="M357.481 192.631C358.112 193.408 358.112 194.181 357.481 194.948C356.454 195.12 355.426 195.292 354.399 195.463C350.198 197.615 345.917 199.675 341.556 201.642C339.135 203.898 336.567 205.958 333.85 207.822C330.792 208.732 327.71 208.818 324.603 208.079C323.678 208.119 322.822 208.376 322.034 208.852C320.321 210.917 319.036 213.234 318.181 215.803C317.796 216.126 317.367 216.383 316.897 216.576C314.461 216.954 312.064 217.297 309.705 217.606C309.312 216.54 309.055 215.424 308.934 214.259C308.646 213.99 308.303 213.818 307.907 213.744C306.537 214.43 305.167 215.117 303.797 215.803C302.719 215.398 301.605 215.227 300.458 215.288C300.458 215.975 300.458 216.662 300.458 217.348C298.049 218.702 295.48 219.817 292.752 220.695C292.152 221.296 291.553 221.897 290.954 222.498C290.827 224.243 290.57 225.96 290.183 227.647C289.401 228.194 288.545 228.538 287.614 228.677C283.396 229.457 279.115 229.886 274.771 229.964C274.333 230.491 273.819 230.92 273.23 231.252C272.239 230.799 271.297 230.284 270.405 229.707C269.604 229.979 268.833 230.323 268.093 230.737C267.033 228.918 265.492 227.716 263.469 227.132C261.634 227.539 259.921 228.225 258.332 229.192C257.24 228.73 256.213 228.129 255.25 227.39C250.777 227.111 246.325 227.111 241.893 227.39C241.323 225.98 241.237 224.521 241.636 223.013C242.154 222.764 242.753 222.679 243.434 222.755C244.483 219.826 246.538 218.796 249.599 219.665C251.583 220.274 253.381 221.218 254.993 222.498C255.83 220.918 257.115 219.888 258.846 219.408C259.787 218.638 260.9 218.295 262.185 218.378C266.05 219.595 269.389 218.823 272.203 216.061C272.867 215.809 273.552 215.723 274.258 215.803C274.258 215.288 274.258 214.774 274.258 214.259C276.917 214.669 279.229 213.983 281.193 212.199C281.441 211.711 281.526 211.196 281.45 210.654C278.575 210.351 275.835 209.579 273.23 208.337C272.717 206.915 271.69 206.228 270.148 206.277C269.074 204.854 268.047 203.395 267.065 201.9C266.183 202.501 265.841 203.36 266.038 204.475C265.353 204.475 264.668 204.475 263.983 204.475C263.983 205.161 263.983 205.848 263.983 206.534C262.155 206.646 260.357 206.474 258.589 206.019C257.544 205.276 257.116 204.246 257.305 202.93C255.754 203.015 254.213 202.929 252.681 202.672C252.159 202.405 251.817 201.976 251.654 201.385C252.877 199.045 254.761 197.415 257.305 196.493C258.209 194.978 259.579 194.12 261.415 193.918C261.844 193.398 262.016 192.797 261.928 192.116C261.072 192.116 260.216 192.116 259.36 192.116C259.36 191.429 259.36 190.742 259.36 190.056C260.593 186.164 263.246 184.447 267.322 184.907C273.789 185.581 279.954 187.297 285.816 190.056C284.783 184.068 287.18 180.464 293.009 179.242C297.811 181.177 302.692 182.894 307.65 184.392C309.052 184.497 310.25 184.068 311.246 183.104C322.994 182.568 334.639 183.426 346.179 185.679C347.378 186.88 348.577 188.082 349.775 189.284C351.145 189.455 352.515 189.627 353.885 189.799C355.167 190.656 356.366 191.601 357.481 192.631Z" fill="white" stroke="#F2F3F4"/>
<path fill-rule="evenodd" clip-rule="evenodd" d="M212.097 254.94C209.493 254.408 206.925 253.722 204.392 252.88C202.983 253.765 201.784 254.881 200.795 256.227C197.52 255.735 195.038 256.851 193.346 259.574C192.897 263.687 191.099 267.034 187.952 269.616C184.243 271.146 180.475 272.519 176.65 273.735C175.588 278.998 172.335 281.401 166.89 280.944C165.174 278.91 162.948 278.052 160.211 278.37C158.799 277.791 157.515 277.019 156.358 276.052C155.796 272.119 155.368 268.171 155.074 264.209C152.178 263.781 149.267 263.524 146.341 263.436C144.538 260.43 141.97 258.37 138.635 257.257C136.71 254.982 134.484 253.094 131.956 251.593C129.388 251.421 126.819 251.249 124.25 251.078C121.69 249.135 118.779 248.105 115.517 247.988C114.844 246.641 113.988 245.439 112.948 244.383C109.162 243.709 105.566 244.224 102.16 245.928C99.5916 246.1 97.023 246.272 94.4544 246.443C93.1963 246.816 91.9972 247.331 90.8583 247.988C88.845 249.993 86.9617 252.052 85.2073 254.167C83.0235 254.783 80.797 255.04 78.5289 254.94C78.6506 254.275 78.4796 253.76 78.0152 253.395C77.6165 246.888 77.3596 240.366 77.2446 233.827C75.5359 230.866 73.0531 229.837 69.7956 230.737C69.7015 229.483 70.0442 228.367 70.823 227.39C72.19 227.698 73.5596 227.612 74.9328 227.133C74.4078 226.693 73.9799 226.178 73.6485 225.588C73.5273 224.422 73.2704 223.306 72.8779 222.241C71.0835 221.724 69.457 221.981 67.9975 223.013C67.4838 222.327 66.9701 221.64 66.4563 220.953C65.8188 216.618 66.4178 212.499 68.2544 208.594C68.8441 209.444 69.5289 210.216 70.3093 210.912C72.0215 211.083 73.7343 211.255 75.4465 211.427C76.0758 212.232 76.8464 212.832 77.7583 213.229C79.526 212.775 81.3241 212.603 83.1524 212.714C83.1524 212.028 83.1524 211.341 83.1524 210.654C84.3653 210.565 85.5638 210.393 86.7485 210.139C86.8317 209.096 86.7459 208.066 86.4916 207.05C84.7516 205.478 82.8683 204.104 80.8407 202.93C79.8831 200.566 79.0272 198.163 78.272 195.721C77.8718 195.088 77.3581 194.574 76.7308 194.176C73.4219 193.246 70.5107 193.932 67.9975 196.236C66.9937 199.059 66.48 201.977 66.4563 204.99C65.2219 202.861 64.2797 200.629 63.6309 198.296C65.6806 195.822 68.2492 194.019 71.3367 192.889C78.0619 190.09 83.7987 191.378 88.5465 196.751C90.3281 199.549 92.2972 202.21 94.4544 204.732C96.349 204.964 98.2323 204.878 100.105 204.475C104.043 204.675 107.981 204.847 111.921 204.99C111.933 202.915 111.591 200.941 110.894 199.068C111.953 194.496 114.864 192.351 119.627 192.631C121.171 188.273 123.311 187.93 126.048 191.601C126.391 191.086 126.391 190.571 126.048 190.056C125.183 189.275 124.412 188.417 123.737 187.482C125.106 186.7 126.561 186.014 128.103 185.422C129.738 187.057 131.707 188.087 134.011 188.512C134.577 189.742 135.434 190.686 136.58 191.344C138.594 191.448 140.564 191.706 142.488 192.116C142.659 193.49 142.83 194.862 143.001 196.236C143.553 196.811 144.152 197.326 144.799 197.781C144.32 199.804 144.149 201.864 144.286 203.96C146.107 204.879 148.076 205.394 150.194 205.505C153.534 206.074 156.874 206.16 160.211 205.762C161.166 206.114 162.023 206.629 162.78 207.307C164.236 210.827 166.034 214.174 168.174 217.349C168.416 219.964 169.53 222.11 171.513 223.785C176.478 226.76 181.102 230.193 185.384 234.084C186.522 234.622 187.72 234.965 188.98 235.114C192.797 238.099 196.821 240.76 201.052 243.096C205.096 243.882 208.949 245.169 212.611 246.958C212.898 247.331 213.069 247.76 213.125 248.245C212.32 250.405 211.978 252.636 212.097 254.94Z" fill="white" stroke="#F2F3F4"/>
<path fill-rule="evenodd" clip-rule="evenodd" d="M258.848 219.404C257.116 219.884 255.832 220.914 254.995 222.494C253.383 221.214 251.585 220.27 249.601 219.662C246.539 218.792 244.484 219.822 243.436 222.751C242.755 222.675 242.156 222.76 241.638 223.009C241.239 224.517 241.325 225.976 241.895 227.386C246.327 227.107 250.779 227.107 255.252 227.386C256.214 228.125 257.242 228.726 258.334 229.188C259.923 228.221 261.636 227.535 263.471 227.128C265.494 227.712 267.035 228.914 268.095 230.733C268.835 230.319 269.606 229.975 270.406 229.703C271.299 230.28 272.241 230.795 273.232 231.248C273.821 230.916 274.334 230.487 274.773 229.96C279.117 229.882 283.398 229.453 287.616 228.673C287.362 230.991 288.047 232.965 289.671 234.595C288.371 236.388 288.543 238.104 290.185 239.744C290.87 240.088 291.555 240.088 292.24 239.744C292.768 238.87 293.539 238.441 294.552 238.457C296.559 239.034 298.443 239.892 300.203 241.032C300.458 242.076 300.373 243.106 299.946 244.122C300.889 247.614 301.917 251.047 303.028 254.42C302.141 256.858 300.772 257.115 298.918 255.193C297.977 255.107 297.034 255.021 296.093 254.935C293.394 255.296 290.74 255.811 288.13 256.48C288.13 255.622 288.13 254.764 288.13 253.905C283.688 253.472 280.263 255.102 277.855 258.797C274.615 259.477 271.704 260.851 269.122 262.917C266.965 263.592 265.594 262.819 265.012 260.6C264.386 256.454 264.558 252.335 265.526 248.241C264.499 248.241 263.471 248.241 262.444 248.241C263.758 243.208 261.875 241.149 256.793 242.062C254.872 243.9 253.246 245.959 251.912 248.241C251.992 249.431 251.992 250.632 251.912 251.846C251.174 252.473 250.317 252.816 249.344 252.876C244.821 251.146 242.681 252.691 242.922 257.51C241.46 257.752 240.262 257.323 239.326 256.223C235.978 255.924 233.066 256.953 230.593 259.312C228.046 260.179 226.334 259.407 225.456 256.995C225.83 255.667 226.086 254.294 226.226 252.876C228.117 250.455 229.744 247.88 231.107 245.151C229.212 242.036 228.527 238.603 229.052 234.852C227.671 234.937 226.301 234.851 224.942 234.595C224.248 232.95 223.049 232.006 221.346 231.763C221.06 229.503 221.916 227.872 223.914 226.871C226.99 226.994 230.072 226.994 233.161 226.871C234.619 224.641 236.161 222.496 237.785 220.434C236.974 220.023 236.118 219.766 235.216 219.662C237.027 219.097 238.91 218.668 240.867 218.374C241.552 217.173 241.552 215.971 240.867 214.77C241.552 213.74 242.237 212.71 242.922 211.68C246.767 213.205 250.021 212.261 252.683 208.848C254.693 209.05 256.063 210.166 256.793 212.195C256.096 213.38 255.154 214.41 253.967 215.284C253.625 215.799 253.625 216.314 253.967 216.829C255.251 218.446 256.878 219.304 258.848 219.404Z" fill="white" stroke="#F2F3F4"/>
<path fill-rule="evenodd" clip-rule="evenodd" d="M357.482 192.63C356.367 191.6 355.169 190.655 353.886 189.797C352.516 189.626 351.147 189.454 349.777 189.282C348.578 188.081 347.379 186.879 346.18 185.678C334.64 183.424 322.996 182.566 311.247 183.103C310.252 184.067 309.053 184.496 307.651 184.39C302.693 182.892 297.813 181.176 293.01 179.241C287.182 180.462 284.785 184.067 285.818 190.055C279.955 187.296 273.79 185.579 267.324 184.905C263.248 184.446 260.594 186.162 259.361 190.055C258.792 193.362 256.737 194.821 253.196 194.432C252.169 195.633 251.141 196.835 250.114 198.037C246.649 199.344 243.395 201.06 240.353 203.186C239.267 205.476 237.64 207.279 235.473 208.593C235.19 214.107 232.964 215.137 228.794 211.683C228.623 210.309 228.452 208.936 228.281 207.563C228.024 207.306 227.767 207.048 227.51 206.791C223.4 206.619 219.29 206.447 215.181 206.276C214.41 205.847 213.81 205.246 213.383 204.473C212.973 201.714 212.544 198.968 212.098 196.234C210.384 195.931 208.757 195.416 207.218 194.689C207.121 190.566 207.121 186.446 207.218 182.331C206.194 183.298 205.081 183.47 203.879 182.846C201.987 178.972 199.246 175.796 195.659 173.319C192.887 173.837 190.062 174.267 187.183 174.606C184.19 174.365 181.193 174.193 178.192 174.092C173.533 174.358 168.909 174.788 164.322 175.379C160.168 171.731 156.572 167.611 153.534 163.02C144.781 157.605 136.047 152.199 127.334 146.799C118.271 149.456 109.195 152.031 100.106 154.524C100.106 171.173 100.106 187.824 100.106 204.473C98.2331 204.877 96.3498 204.963 94.4552 204.731C92.2981 202.208 90.329 199.547 88.5474 196.749C83.7995 191.376 78.0627 190.089 71.3376 192.887C68.2501 194.018 65.6815 195.82 63.6317 198.294C63.2921 197.453 63.1211 196.509 63.118 195.462C64.0134 192.174 64.4418 188.827 64.4023 185.42C64.1454 185.163 63.8886 184.905 63.6317 184.648C61.2172 184.302 58.8201 183.873 56.4395 183.361C55.7809 182.496 55.2672 181.552 54.8984 180.528C53.6998 180.357 52.5008 180.185 51.3023 180.013C50.9047 178.775 50.6478 177.488 50.5317 176.151C48.7958 172.996 47.2547 169.735 45.9082 166.367C44.3896 164.963 42.5916 164.191 40.5141 164.05C39.2328 162.802 39.2328 161.601 40.5141 160.445C43.751 159.185 46.7476 159.614 49.5043 161.733C50.6011 161.41 51.7143 161.152 52.8435 160.96C51.6465 159.844 50.2764 158.986 48.7337 158.386C48.1824 157.71 47.8398 156.937 47.7062 156.068C48.7696 154.453 49.7118 152.737 50.5317 150.919C51.3429 150.125 52.285 149.524 53.3572 149.117C58.4184 148.559 63.3841 148.988 68.2552 150.404C68.9205 150.096 69.6053 149.839 70.3101 149.632C68.7366 148.766 67.5381 147.565 66.714 146.027C67.3593 143.568 68.3009 141.251 69.5395 139.075C69.4214 136.229 69.5072 133.397 69.7964 130.579C69.4394 127.905 67.8982 126.618 65.1729 126.716C63.2413 127.255 61.3579 127.941 59.5219 128.776C57.0653 127.803 54.6682 126.687 52.3297 125.429C48.2482 125.189 44.4811 126.219 41.0278 128.519C37.8889 131.296 34.2929 132.927 30.2396 133.411C29.5794 134.072 28.8941 134.759 28.1847 135.471C26.0686 134.631 24.0137 133.687 22.02 132.638C21.1697 131.895 20.8271 130.95 20.9925 129.806C22.5106 130.145 24.0517 130.317 25.616 130.321C23.5688 125.109 20.6581 120.388 16.8827 116.16C13.5425 115.614 10.2033 115.185 6.86508 114.873C6.26212 113.047 5.91962 111.158 5.83763 109.208C4.46768 108.178 3.09778 107.148 1.72783 106.119C0.979431 104.643 0.808206 103.098 1.2141 101.484C2.32524 99.1838 3.60955 97.038 5.06704 95.0472C1.8017 89.8128 2.65792 85.2637 7.63566 81.4011C7.63654 79.0138 8.49276 77.04 10.2043 75.4792C12.0768 75.3458 13.5322 76.1183 14.571 77.7965C15.8285 79.9155 17.2839 81.8893 18.9376 83.7184C20.354 84.0191 21.7235 83.8471 23.0474 83.2034C23.8077 82.5345 24.1499 81.6761 24.0749 80.6287C23.367 77.8315 22.8532 74.9993 22.5337 72.1321C23.239 72.2129 23.9243 72.1269 24.5886 71.8746C26.1298 70.6732 27.6709 69.4713 29.2121 68.27C29.8214 65.4249 31.5336 63.8801 34.3494 63.6354C35.8607 62.3553 37.5735 61.4114 39.4866 60.8032C41.5682 58.4602 43.7089 56.2285 45.9082 54.1089C47.1308 54.8057 48.4152 55.4061 49.7611 55.9113C50.1264 57.2563 50.9828 58.0287 52.3297 58.2285C54.7756 56.8176 57.3442 55.6162 60.0356 54.6239C61.5876 54.7871 62.615 55.645 63.118 57.1986C66.3252 57.9386 69.5791 58.3681 72.8787 58.486C74.4199 59.3444 75.6184 60.5458 76.4748 62.0906C79.2428 63.1488 81.3829 64.9511 82.8964 67.4975C83.8 69.098 84.228 70.8143 84.1807 72.647C84.8598 72.7346 85.4594 72.5631 85.9787 72.1321C86.455 70.1948 86.1981 68.3925 85.2081 66.7251C85.2939 65.9527 85.7219 65.5238 86.4925 65.4378C89.4474 67.393 92.2729 69.5388 94.9689 71.8746C98.4438 72.6218 100.841 71.3344 102.161 68.0125C103.322 66.9594 104.606 66.1015 106.014 65.4378C107.002 66.1082 107.944 66.0222 108.84 65.1803C110.21 64.8368 111.579 64.8368 112.949 65.1803C114.066 66.8564 115.607 67.5429 117.573 67.2401C118.278 66.6005 118.791 65.8281 119.114 64.9228C121.529 64.2889 123.927 64.3749 126.306 65.1803C127.657 67.0506 129.198 68.7669 130.93 70.3298C132.947 70.9539 135.002 71.4688 137.094 71.8746C137.388 72.4951 137.73 73.096 138.122 73.6769C138.787 73.369 139.472 73.1115 140.177 72.9045C141.193 71.1166 142.392 69.4863 143.773 68.0125C144.542 69.2118 145.57 70.1562 146.855 70.8447C153.628 72.1048 157.823 69.4446 159.441 62.863C159.768 61.7636 159.596 60.7337 158.928 59.7733C155.448 58.3717 151.937 56.9128 148.396 55.3963C147.712 54.5379 147.026 53.68 146.341 52.8216C145.136 52.4549 144.108 51.854 143.259 51.0193C145.304 48.719 147.872 47.4316 150.965 47.1572C151.596 46.3698 152.367 45.7689 153.277 45.3548C152.794 43.5906 152.194 41.7883 151.479 39.9479C151.891 38.1605 152.747 36.6157 154.047 35.3134C157.651 35.0564 161.247 35.1424 164.836 35.5709C164.97 34.8098 164.799 34.1233 164.322 33.5111C161.666 31.8529 158.755 30.9945 155.588 30.9363C155.588 30.0779 155.588 29.22 155.588 28.3616C156.63 28.445 157.657 28.359 158.671 28.1041C159.36 27.1638 159.103 26.5629 157.9 26.3018C156.351 27.0088 154.896 26.8374 153.534 25.7869C154.246 24.0067 154.93 22.2044 155.588 20.3799C158.009 20.263 160.406 20.5205 162.781 21.1524C170.198 19.7857 177.562 18.3268 184.871 16.7753C186.47 15.8592 188.182 15.2588 190.008 14.973C192.323 15.1764 194.635 15.3484 196.943 15.4879C197.769 14.0966 198.882 12.9807 200.283 12.1408C210.383 10.9121 220.315 9.02381 230.079 6.47637C230.544 5.60148 230.715 4.65706 230.592 3.64417C231.634 3.72759 232.661 3.64159 233.675 3.38669C237.294 0.850579 241.232 0.335633 245.49 1.84185C247.205 2.83055 249.003 3.60297 250.884 4.15911C251.928 3.97476 252.871 3.5453 253.71 2.87174C255.08 2.52828 256.45 2.52828 257.82 2.87174C260.622 6.83168 261.735 11.2087 261.159 16.0029C260.271 16.8752 260.528 17.4761 261.93 17.8052C265.71 18.4329 269.22 17.832 272.461 16.0029C273.817 17.2702 274.587 18.815 274.773 20.6374C275.286 20.6374 275.8 20.6374 276.314 20.6374C276.314 19.951 276.314 19.264 276.314 18.5776C277.525 18.4937 278.723 18.5792 279.91 18.8351C282.298 21.6472 284.953 21.9047 287.873 19.6075C288.632 20.3145 288.547 21.087 287.616 21.9248C283.794 23.1709 283.108 25.3167 285.561 28.3616C286.798 26.755 288.424 25.8966 290.441 25.7869C292.463 26.1489 294.433 26.6638 296.349 27.3317C296.294 26.0943 296.808 25.1504 297.89 24.4995C300.491 23.6298 303.06 22.5999 305.596 21.4098C306.235 20.8156 306.748 20.1286 307.137 19.35C311.683 17.8047 316.221 16.1738 320.751 14.458C321.008 14.6295 321.265 14.8015 321.522 14.973C321.144 16.024 320.716 17.0539 320.237 18.0627C319.541 18.5158 318.77 18.6878 317.926 18.5776C318.229 20.1812 319.086 21.4685 320.494 22.4397C326.797 25.551 332.02 29.9281 336.163 35.5709C343.32 46.273 349.741 57.4298 355.428 69.0424C356.574 67.6319 358.029 66.774 359.794 66.4677C359.256 63.3224 360.541 61.6055 363.647 61.3182C364.85 61.6694 366.048 62.0129 367.243 62.3481C367.243 63.7214 367.243 65.0943 367.243 66.4677C370.033 65.7436 371.232 66.7735 370.839 69.5573C374.781 69.787 378.72 69.8725 382.655 69.8148C389.207 64.0361 394.773 64.98 399.351 72.647C399.792 74.2737 400.391 75.8186 401.149 77.2815C403.057 77.8887 404.769 78.8326 406.286 80.1137C406.951 80.3661 407.636 80.4521 408.341 80.3712C408.435 82.8775 409.291 85.1092 410.91 87.0655C413.92 87.8843 416.917 88.7422 419.9 89.6403C421.94 88.289 423.995 86.9157 426.065 85.5207C426.322 85.6922 426.578 85.8641 426.835 86.0356C426.09 86.7308 425.748 87.5887 425.808 88.6104C427.475 89.2515 428.673 90.4528 429.404 92.215C430.91 92.8844 432.109 93.9143 433 95.3047C431.884 95.3953 430.686 95.4813 429.404 95.5621C428.669 95.8016 428.07 96.2311 427.606 96.8495C427.379 99.7749 426.266 102.264 424.267 104.316C421.768 105.243 419.2 105.93 416.561 106.376C414.962 108.578 414.277 111.068 414.506 113.843C414.906 117.101 414.991 120.362 414.763 123.627C413.927 125.12 412.643 125.892 410.91 125.944C409.845 127.206 408.561 128.15 407.057 128.776C405.902 127.791 404.618 127.018 403.204 126.459C398.914 126.654 394.804 125.967 390.875 124.399C389.688 124.143 388.489 124.058 387.278 124.142C385.199 131.444 382.802 138.653 380.086 145.769C380.447 147.246 381.389 148.105 382.912 148.344C383.277 149.58 383.191 150.781 382.655 151.949C380.812 151.858 378.928 152.029 377.004 152.464C375.608 151.49 374.152 150.633 372.637 149.889C369.951 150.729 367.297 151.673 364.675 152.721C362.265 152.98 359.868 153.324 357.482 153.751C356.159 154.154 355.132 154.926 354.4 156.068C356.313 156.936 358.197 157.88 360.051 158.901C359.118 161.143 358.861 163.46 359.28 165.852C361.187 170.53 362.643 175.336 363.647 180.271C362.171 180.334 360.886 180.849 359.794 181.816C359.634 182.455 359.891 182.97 360.565 183.361C359.822 184.165 358.967 184.852 357.996 185.42C357.825 186.107 357.653 186.794 357.482 187.48C357.969 189.287 357.969 191.003 357.482 192.63Z" fill="white" stroke="#F2F3F4"/>
<path fill-rule="evenodd" clip-rule="evenodd" d="M259.361 190.056C259.361 190.743 259.361 191.43 259.361 192.116C260.218 192.116 261.073 192.116 261.93 192.116C262.017 192.797 261.846 193.398 261.416 193.918C259.581 194.12 258.211 194.979 257.306 196.493C254.762 197.415 252.879 199.046 251.655 201.385C251.819 201.976 252.161 202.405 252.683 202.672C254.215 202.929 255.756 203.015 257.306 202.93C257.117 204.246 257.546 205.276 258.591 206.02C260.358 206.474 262.156 206.646 263.985 206.535C263.985 205.848 263.985 205.161 263.985 204.475C264.67 204.475 265.355 204.475 266.04 204.475C265.842 203.36 266.185 202.502 267.067 201.9C268.048 203.395 269.076 204.854 270.149 206.277C271.691 206.229 272.719 206.915 273.232 208.337C275.837 209.579 278.577 210.351 281.451 210.654C281.528 211.196 281.443 211.711 281.195 212.199C279.231 213.983 276.919 214.669 274.259 214.259C274.259 214.774 274.259 215.289 274.259 215.804C273.554 215.723 272.869 215.809 272.204 216.061C269.391 218.823 266.051 219.595 262.187 218.378C260.901 218.295 259.788 218.638 258.847 219.408C256.877 219.308 255.25 218.45 253.967 216.834C253.624 216.319 253.624 215.804 253.967 215.289C255.154 214.414 256.095 213.384 256.793 212.199C256.063 210.17 254.693 209.054 252.683 208.852C250.021 212.265 246.767 213.209 242.922 211.684C242.237 212.714 241.552 213.744 240.867 214.774C241.552 215.975 241.552 217.177 240.867 218.378C238.91 218.672 237.027 219.101 235.216 219.666C236.118 219.77 236.974 220.027 237.785 220.438C236.16 222.5 234.619 224.645 233.161 226.875C230.072 226.999 226.989 226.999 223.914 226.875C221.916 227.877 221.059 229.507 221.346 231.767C223.049 232.01 224.248 232.954 224.942 234.599C226.301 234.855 227.671 234.941 229.051 234.857C228.527 238.608 229.212 242.041 231.106 245.156C229.744 247.884 228.117 250.459 226.226 252.88C226.086 254.298 225.829 255.671 225.455 256.999C222.627 256.811 219.888 256.211 217.236 255.197C215.532 254.941 213.819 254.855 212.099 254.94C211.979 252.636 212.321 250.404 213.126 248.245C213.07 247.76 212.899 247.331 212.612 246.958C208.95 245.169 205.097 243.882 201.053 243.096C196.822 240.76 192.798 238.099 188.981 235.114C187.721 234.965 186.523 234.622 185.385 234.084C181.103 230.193 176.479 226.76 171.514 223.785C169.531 222.11 168.417 219.964 168.175 217.348C166.035 214.174 164.237 210.827 162.781 207.307C162.024 206.629 161.167 206.114 160.212 205.762C156.875 206.16 153.535 206.074 150.195 205.505C148.077 205.393 146.108 204.879 144.287 203.96C144.15 201.864 144.321 199.804 144.801 197.78C144.153 197.326 143.554 196.811 143.002 196.236C142.831 194.862 142.66 193.489 142.489 192.116C140.565 191.706 138.595 191.448 136.581 191.344C135.435 190.686 134.578 189.742 134.012 188.511C131.708 188.087 129.739 187.057 128.104 185.422C126.562 186.013 125.107 186.7 123.738 187.482C124.413 188.417 125.184 189.275 126.05 190.056C126.392 190.571 126.392 191.086 126.05 191.601C123.312 187.93 121.172 188.273 119.628 192.631C114.865 192.351 111.954 194.496 110.895 199.068C111.592 200.941 111.934 202.915 111.922 204.99C107.982 204.847 104.044 204.675 100.106 204.475C100.106 187.825 100.106 171.175 100.106 154.525C109.195 152.033 118.271 149.458 127.334 146.801C136.048 152.2 144.781 157.607 153.534 163.022C156.572 167.613 160.168 171.732 164.322 175.38C168.91 174.789 173.533 174.36 178.193 174.093C181.193 174.194 184.19 174.366 187.183 174.608C190.062 174.268 192.888 173.839 195.659 173.321C199.247 175.798 201.987 178.974 203.879 182.847C205.082 183.471 206.194 183.299 207.218 182.332C207.121 186.448 207.121 190.567 207.218 194.691C208.757 195.417 210.384 195.932 212.099 196.236C212.544 198.969 212.973 201.716 213.383 204.475C213.811 205.247 214.41 205.848 215.181 206.277C219.291 206.449 223.4 206.621 227.51 206.792C227.767 207.05 228.024 207.307 228.281 207.564C228.452 208.938 228.624 210.311 228.795 211.684C232.964 215.138 235.19 214.108 235.473 208.594C237.64 207.28 239.267 205.478 240.353 203.187C243.396 201.062 246.65 199.345 250.114 198.038C251.142 196.837 252.169 195.635 253.197 194.433C256.738 194.823 258.793 193.364 259.361 190.056Z" fill="white" stroke="#A8A8A8"/>
</svg>
