<svg width="496" height="322" viewBox="0 0 496 322" fill="none" xmlns="http://www.w3.org/2000/svg">
<path fill-rule="evenodd" clip-rule="evenodd" d="M408.643 220.008C409.365 220.897 409.365 221.78 408.643 222.657C407.468 222.853 406.294 223.049 405.119 223.245C400.315 225.705 395.419 228.059 390.432 230.307C387.665 232.885 384.727 235.239 381.62 237.369C378.124 238.41 374.599 238.508 371.046 237.664C369.989 237.709 369.01 238.003 368.109 238.546C366.15 240.906 364.681 243.555 363.703 246.491C363.263 246.86 362.773 247.154 362.234 247.374C359.449 247.806 356.708 248.198 354.01 248.551C353.561 247.334 353.268 246.058 353.129 244.726C352.799 244.419 352.408 244.223 351.954 244.137C350.387 244.922 348.821 245.707 347.254 246.491C346.021 246.028 344.748 245.832 343.436 245.903C343.436 246.687 343.436 247.472 343.436 248.257C340.681 249.804 337.744 251.079 334.624 252.082C333.939 252.769 333.254 253.455 332.568 254.142C332.424 256.137 332.13 258.099 331.687 260.027C330.793 260.652 329.814 261.045 328.75 261.204C323.926 262.096 319.03 262.586 314.063 262.676C313.562 263.277 312.974 263.767 312.301 264.147C311.168 263.629 310.09 263.04 309.07 262.381C308.154 262.693 307.273 263.085 306.426 263.558C305.214 261.48 303.452 260.106 301.139 259.439C299.04 259.903 297.082 260.688 295.265 261.793C294.016 261.264 292.841 260.577 291.74 259.733C286.626 259.414 281.534 259.414 276.466 259.733C275.814 258.122 275.716 256.454 276.172 254.731C276.765 254.447 277.45 254.349 278.229 254.436C279.428 251.089 281.777 249.912 285.278 250.905C287.547 251.6 289.603 252.679 291.446 254.142C292.404 252.337 293.872 251.16 295.852 250.611C296.928 249.731 298.201 249.339 299.671 249.434C304.09 250.825 307.908 249.942 311.126 246.786C311.886 246.497 312.669 246.399 313.476 246.491C313.476 245.903 313.476 245.314 313.476 244.726C316.517 245.195 319.161 244.41 321.406 242.372C321.69 241.814 321.788 241.225 321.7 240.606C318.413 240.26 315.28 239.377 312.301 237.958C311.714 236.333 310.539 235.549 308.776 235.604C307.548 233.977 306.373 232.31 305.251 230.602C304.243 231.289 303.851 232.27 304.077 233.544C303.293 233.544 302.51 233.544 301.727 233.544C301.727 234.329 301.727 235.114 301.727 235.898C299.636 236.025 297.58 235.829 295.558 235.31C294.364 234.46 293.874 233.283 294.09 231.779C292.317 231.876 290.554 231.777 288.803 231.484C288.206 231.179 287.815 230.688 287.628 230.013C289.027 227.339 291.181 225.476 294.09 224.422C295.124 222.691 296.691 221.71 298.789 221.48C299.281 220.885 299.477 220.198 299.377 219.42C298.398 219.42 297.419 219.42 296.44 219.42C296.44 218.635 296.44 217.85 296.44 217.066C297.849 212.617 300.884 210.656 305.545 211.181C312.94 211.951 319.989 213.913 326.693 217.066C325.512 210.223 328.253 206.103 334.918 204.707C340.41 206.919 345.991 208.88 351.66 210.592C353.263 210.713 354.634 210.223 355.772 209.121C369.207 208.508 382.523 209.488 395.719 212.063C397.09 213.436 398.461 214.81 399.832 216.183C401.398 216.379 402.964 216.576 404.531 216.772C405.997 217.752 407.368 218.831 408.643 220.008Z" fill="white" fill-opacity="0.4" stroke="white" stroke-opacity="0.24"/>
<path fill-rule="evenodd" clip-rule="evenodd" d="M242.394 291.219C239.417 290.611 236.479 289.827 233.583 288.865C231.972 289.876 230.601 291.152 229.47 292.69C225.725 292.128 222.886 293.403 220.952 296.515C220.439 301.216 218.383 305.041 214.784 307.991C210.542 309.74 206.234 311.31 201.86 312.699C200.645 318.714 196.925 321.461 190.698 320.939C188.736 318.613 186.191 317.632 183.061 317.996C181.447 317.335 179.978 316.452 178.656 315.348C178.012 310.852 177.523 306.341 177.187 301.812C173.875 301.323 170.546 301.029 167.2 300.929C165.139 297.493 162.202 295.139 158.388 293.867C156.187 291.267 153.642 289.109 150.752 287.393C147.814 287.197 144.877 287.001 141.94 286.805C139.012 284.584 135.683 283.407 131.953 283.274C131.183 281.734 130.205 280.361 129.016 279.154C124.686 278.383 120.573 278.972 116.679 280.92C113.742 281.116 110.805 281.312 107.867 281.508C106.429 281.935 105.058 282.523 103.755 283.274C101.453 285.565 99.2993 287.919 97.2932 290.336C94.7959 291.039 92.2499 291.333 89.6563 291.219C89.7955 290.459 89.5999 289.87 89.0688 289.453C88.613 282.017 88.3192 274.563 88.1877 267.09C86.2338 263.706 83.3946 262.529 79.6696 263.559C79.5621 262.125 79.9539 260.85 80.8445 259.733C82.4077 260.085 83.9738 259.988 85.5441 259.439C84.9437 258.936 84.4544 258.348 84.0755 257.674C83.9368 256.341 83.6431 255.066 83.1943 253.848C81.1423 253.257 79.2824 253.552 77.6135 254.731C77.026 253.946 76.4386 253.161 75.8511 252.377C75.1221 247.423 75.8071 242.715 77.9072 238.253C78.5816 239.223 79.3647 240.106 80.257 240.901C82.215 241.097 84.1736 241.293 86.1316 241.489C86.8512 242.409 87.7324 243.096 88.7751 243.549C90.7965 243.03 92.8526 242.834 94.9434 242.961C94.9434 242.176 94.9434 241.391 94.9434 240.607C96.3304 240.504 97.7009 240.308 99.0556 240.018C99.1507 238.825 99.0526 237.648 98.7618 236.487C96.7721 234.69 94.6185 233.121 92.2998 231.779C91.2048 229.077 90.2261 226.331 89.3626 223.54C88.9049 222.817 88.3175 222.229 87.6002 221.774C83.8164 220.711 80.4873 221.496 77.6135 224.128C76.4656 227.355 75.8781 230.69 75.8511 234.133C74.4395 231.7 73.3621 229.149 72.6201 226.482C74.9641 223.655 77.9013 221.595 81.4319 220.303C89.1223 217.105 95.6824 218.576 101.112 224.717C103.149 227.915 105.401 230.956 107.867 233.839C110.034 234.104 112.188 234.005 114.329 233.544C118.832 233.773 123.335 233.969 127.841 234.133C127.855 231.762 127.463 229.506 126.666 227.365C127.877 222.14 131.206 219.689 136.653 220.009C138.418 215.028 140.866 214.636 143.996 218.832C144.388 218.243 144.388 217.655 143.996 217.066C143.006 216.173 142.125 215.192 141.352 214.124C142.918 213.23 144.582 212.446 146.346 211.77C148.215 213.638 150.467 214.815 153.101 215.301C153.749 216.707 154.728 217.786 156.039 218.537C158.342 218.657 160.594 218.951 162.794 219.42C162.99 220.99 163.186 222.559 163.382 224.128C164.013 224.786 164.698 225.375 165.438 225.894C164.89 228.206 164.694 230.56 164.85 232.956C166.933 234.006 169.185 234.594 171.606 234.722C175.426 235.372 179.245 235.47 183.061 235.016C184.154 235.418 185.133 236.007 185.999 236.781C187.664 240.804 189.72 244.629 192.167 248.257C192.444 251.246 193.717 253.699 195.985 255.614C201.663 259.013 206.95 262.937 211.847 267.384C213.148 267.998 214.518 268.39 215.959 268.561C220.324 271.973 224.926 275.013 229.764 277.683C234.388 278.581 238.794 280.052 242.982 282.097C243.31 282.523 243.506 283.014 243.569 283.568C242.649 286.036 242.258 288.586 242.394 291.219Z" fill="white" fill-opacity="0.4" stroke="white" stroke-opacity="0.24"/>
<path fill-rule="evenodd" clip-rule="evenodd" d="M295.854 250.607C293.874 251.156 292.405 252.333 291.448 254.139C289.605 252.676 287.549 251.597 285.28 250.902C281.779 249.908 279.429 251.085 278.23 254.433C277.452 254.346 276.766 254.443 276.174 254.727C275.718 256.451 275.816 258.119 276.468 259.729C281.536 259.41 286.627 259.41 291.742 259.729C292.843 260.574 294.017 261.261 295.266 261.789C297.083 260.684 299.042 259.899 301.141 259.435C303.454 260.103 305.216 261.476 306.428 263.555C307.275 263.082 308.156 262.689 309.072 262.378C310.092 263.037 311.169 263.625 312.303 264.143C312.976 263.764 313.563 263.273 314.065 262.672C319.032 262.583 323.928 262.092 328.751 261.201C328.46 263.85 329.244 266.106 331.101 267.969C329.615 270.017 329.81 271.979 331.689 273.854C332.472 274.246 333.255 274.246 334.038 273.854C334.643 272.854 335.524 272.364 336.682 272.382C338.978 273.042 341.131 274.023 343.144 275.325C343.436 276.518 343.338 277.695 342.85 278.856C343.929 282.847 345.104 286.771 346.375 290.626C345.361 293.412 343.795 293.706 341.675 291.509C340.598 291.411 339.521 291.313 338.444 291.215C335.358 291.627 332.323 292.215 329.339 292.98C329.339 291.999 329.339 291.019 329.339 290.038C324.259 289.542 320.343 291.406 317.59 295.629C313.885 296.406 310.555 297.975 307.603 300.337C305.136 301.108 303.569 300.225 302.903 297.688C302.187 292.951 302.383 288.243 303.491 283.564C302.316 283.564 301.141 283.564 299.966 283.564C301.469 277.813 299.315 275.459 293.504 276.502C291.308 278.602 289.448 280.956 287.923 283.564C288.014 284.924 288.014 286.297 287.923 287.684C287.078 288.401 286.099 288.793 284.986 288.861C279.815 286.885 277.367 288.65 277.643 294.157C275.971 294.434 274.6 293.944 273.531 292.686C269.702 292.344 266.372 293.521 263.544 296.217C260.632 297.208 258.674 296.325 257.669 293.569C258.097 292.051 258.391 290.482 258.55 288.861C260.713 286.094 262.573 283.152 264.131 280.033C261.965 276.473 261.182 272.55 261.781 268.263C260.203 268.359 258.636 268.261 257.082 267.969C256.288 266.088 254.917 265.01 252.97 264.732C252.642 262.149 253.622 260.286 255.907 259.141C259.423 259.282 262.948 259.282 266.481 259.141C268.148 256.593 269.911 254.141 271.768 251.784C270.841 251.315 269.862 251.021 268.831 250.902C270.901 250.257 273.055 249.766 275.293 249.43C276.076 248.057 276.076 246.684 275.293 245.311C276.076 244.134 276.86 242.957 277.643 241.78C282.039 243.522 285.76 242.444 288.804 238.543C291.103 238.774 292.669 240.05 293.504 242.368C292.707 243.722 291.63 244.899 290.273 245.899C289.881 246.488 289.881 247.076 290.273 247.665C291.74 249.512 293.601 250.493 295.854 250.607Z" fill="white" fill-opacity="0.4" stroke="white" stroke-opacity="0.24"/>
<path fill-rule="evenodd" clip-rule="evenodd" d="M296.441 217.064C296.441 217.848 296.441 218.634 296.441 219.418C297.42 219.418 298.399 219.418 299.378 219.418C299.478 220.196 299.282 220.883 298.791 221.478C296.692 221.708 295.126 222.69 294.091 224.42C291.182 225.474 289.028 227.338 287.629 230.011C287.816 230.686 288.207 231.177 288.804 231.483C290.556 231.776 292.318 231.874 294.091 231.777C293.875 233.281 294.365 234.458 295.56 235.308C297.581 235.827 299.637 236.023 301.728 235.896C301.728 235.112 301.728 234.327 301.728 233.542C302.511 233.542 303.295 233.542 304.078 233.542C303.852 232.268 304.244 231.287 305.253 230.6C306.375 232.308 307.55 233.975 308.777 235.602C310.54 235.547 311.715 236.331 312.302 237.956C315.281 239.376 318.415 240.258 321.701 240.604C321.789 241.224 321.691 241.812 321.408 242.37C319.162 244.409 316.518 245.193 313.477 244.724C313.477 245.313 313.477 245.901 313.477 246.49C312.67 246.397 311.887 246.495 311.127 246.784C307.91 249.94 304.091 250.823 299.672 249.432C298.202 249.337 296.929 249.729 295.853 250.609C293.601 250.495 291.74 249.514 290.273 247.667C289.881 247.078 289.881 246.49 290.273 245.901C291.63 244.901 292.706 243.724 293.504 242.37C292.669 240.051 291.103 238.776 288.804 238.545C285.76 242.445 282.039 243.524 277.642 241.781C276.859 242.959 276.076 244.136 275.292 245.313C276.076 246.686 276.076 248.059 275.292 249.432C273.054 249.768 270.901 250.258 268.831 250.903C269.862 251.022 270.841 251.317 271.768 251.786C269.91 254.143 268.148 256.594 266.481 259.143C262.948 259.284 259.423 259.284 255.907 259.143C253.621 260.287 252.642 262.151 252.969 264.733C254.917 265.011 256.288 266.09 257.081 267.97C258.636 268.263 260.203 268.361 261.781 268.265C261.181 272.551 261.965 276.475 264.131 280.035C262.573 283.153 260.712 286.096 258.55 288.862C258.39 290.483 258.097 292.053 257.669 293.571C254.435 293.356 251.302 292.67 248.27 291.511C246.321 291.218 244.363 291.119 242.395 291.217C242.259 288.584 242.65 286.034 243.57 283.566C243.507 283.011 243.311 282.521 242.983 282.095C238.795 280.05 234.389 278.579 229.765 277.681C224.927 275.011 220.325 271.97 215.96 268.559C214.519 268.388 213.149 267.996 211.847 267.382C206.951 262.934 201.664 259.011 195.986 255.612C193.718 253.697 192.445 251.244 192.168 248.255C189.721 244.627 187.665 240.802 185.999 236.779C185.134 236.005 184.154 235.416 183.062 235.014C179.246 235.468 175.427 235.37 171.607 234.719C169.185 234.592 166.934 234.004 164.851 232.954C164.695 230.558 164.89 228.204 165.439 225.892C164.698 225.373 164.013 224.784 163.382 224.126C163.187 222.557 162.991 220.988 162.795 219.418C160.595 218.949 158.343 218.655 156.039 218.535C154.729 217.784 153.749 216.704 153.102 215.298C150.467 214.813 148.216 213.636 146.346 211.767C144.583 212.444 142.919 213.228 141.353 214.121C142.125 215.19 143.007 216.171 143.997 217.064C144.388 217.652 144.388 218.241 143.997 218.829C140.867 214.634 138.419 215.026 136.653 220.007C131.207 219.686 127.878 222.138 126.667 227.363C127.464 229.504 127.856 231.76 127.842 234.131C123.336 233.967 118.832 233.771 114.33 233.542C114.33 214.514 114.33 195.485 114.33 176.457C124.723 173.608 135.102 170.666 145.465 167.629C155.43 173.799 165.416 179.979 175.425 186.167C178.9 191.414 183.012 196.122 187.762 200.291C193.008 199.616 198.295 199.125 203.623 198.82C207.054 198.936 210.482 199.133 213.904 199.409C217.196 199.02 220.427 198.529 223.597 197.937C227.699 200.769 230.832 204.398 232.996 208.825C234.371 209.538 235.643 209.341 236.814 208.236C236.703 212.94 236.703 217.648 236.814 222.361C238.574 223.191 240.435 223.779 242.395 224.126C242.905 227.25 243.395 230.389 243.864 233.542C244.353 234.425 245.039 235.112 245.92 235.602C250.619 235.798 255.319 235.995 260.019 236.191C260.312 236.485 260.606 236.779 260.9 237.073C261.095 238.643 261.292 240.212 261.487 241.781C266.255 245.729 268.801 244.552 269.124 238.25C271.603 236.749 273.463 234.689 274.705 232.071C278.184 229.642 281.905 227.68 285.867 226.186C287.042 224.813 288.216 223.439 289.391 222.066C293.441 222.511 295.791 220.844 296.441 217.064Z" fill="white" stroke="#A8A8A8"/>
<path fill-rule="evenodd" clip-rule="evenodd" d="M408.644 220.006C407.369 218.829 405.998 217.75 404.532 216.769C402.965 216.573 401.399 216.377 399.832 216.181C398.462 214.808 397.091 213.434 395.72 212.061C382.524 209.486 369.208 208.505 355.773 209.119C354.635 210.22 353.264 210.71 351.661 210.59C345.992 208.878 340.411 206.916 334.919 204.705C328.254 206.101 325.513 210.22 326.694 217.063C319.99 213.91 312.941 211.949 305.546 211.178C300.885 210.653 297.85 212.615 296.44 217.063C295.79 220.843 293.44 222.511 289.391 222.066C288.216 223.439 287.041 224.812 285.866 226.185C281.905 227.68 278.184 229.641 274.705 232.07C273.463 234.688 271.602 236.748 269.124 238.25C268.8 244.552 266.255 245.729 261.487 241.781C261.291 240.211 261.095 238.642 260.9 237.073C260.606 236.779 260.312 236.484 260.018 236.19C255.319 235.994 250.619 235.798 245.919 235.602C245.038 235.111 244.353 234.425 243.863 233.542C243.395 230.389 242.905 227.249 242.395 224.126C240.434 223.779 238.574 223.19 236.814 222.36C236.703 217.647 236.703 212.939 236.814 208.236C235.643 209.341 234.371 209.538 232.995 208.824C230.832 204.397 227.698 200.768 223.596 197.937C220.427 198.529 217.196 199.02 213.903 199.408C210.481 199.132 207.054 198.935 203.623 198.82C198.295 199.124 193.007 199.615 187.761 200.291C183.011 196.122 178.899 191.414 175.425 186.167C165.416 179.978 155.429 173.799 145.465 167.628C135.102 170.665 124.723 173.608 114.33 176.456C114.33 195.484 114.33 214.513 114.33 233.542C112.188 234.003 110.034 234.101 107.868 233.836C105.401 230.953 103.149 227.912 101.112 224.714C95.6828 218.574 89.1227 217.102 81.4323 220.3C77.9017 221.593 74.9644 223.652 72.6205 226.48C72.2322 225.518 72.0366 224.439 72.033 223.243C73.057 219.486 73.5469 215.66 73.5017 211.767C73.208 211.473 72.9142 211.178 72.6205 210.884C69.8595 210.489 67.1184 209.999 64.3961 209.413C63.643 208.425 63.0556 207.345 62.6338 206.176C61.2633 205.98 59.8921 205.783 58.5216 205.587C58.0669 204.172 57.7732 202.701 57.6404 201.174C55.6554 197.568 53.8931 193.84 52.3533 189.992C50.6168 188.387 48.5607 187.504 46.1851 187.344C44.72 185.918 44.72 184.545 46.1851 183.224C49.8866 181.783 53.3132 182.274 56.4655 184.695C57.7197 184.326 58.9927 184.032 60.284 183.812C58.9152 182.537 57.3485 181.556 55.5843 180.87C54.954 180.097 54.5622 179.214 54.4094 178.222C55.6255 176.376 56.7028 174.415 57.6404 172.336C58.568 171.43 59.6454 170.743 60.8714 170.277C66.659 169.639 72.3373 170.13 77.9076 171.748C78.6683 171.396 79.4514 171.102 80.2574 170.865C78.458 169.876 77.0875 168.503 76.1452 166.746C76.8831 163.935 77.9599 161.287 79.3762 158.801C79.2411 155.548 79.3392 152.311 79.67 149.09C79.2617 146.035 77.4993 144.564 74.3829 144.676C72.174 145.291 70.0204 146.076 67.9209 147.03C65.1117 145.918 62.3706 144.643 59.6965 143.205C55.0292 142.931 50.7214 144.108 46.7725 146.736C43.1832 149.91 39.071 151.774 34.436 152.327C33.6811 153.083 32.8974 153.868 32.0862 154.681C29.6664 153.722 27.3166 152.643 25.0367 151.444C24.0645 150.594 23.6726 149.515 23.8618 148.207C25.5977 148.595 27.3601 148.791 29.1489 148.796C26.8079 142.839 23.4794 137.444 19.1622 132.612C15.3426 131.987 11.5241 131.497 7.70682 131.141C7.01733 129.054 6.62567 126.896 6.53191 124.667C4.96535 123.49 3.39885 122.313 1.83228 121.136C0.976479 119.449 0.78068 117.684 1.24483 115.839C2.51543 113.21 3.98407 110.758 5.65073 108.483C1.91676 102.501 2.89587 97.3017 8.588 92.8873C8.589 90.159 9.56811 87.9032 11.5253 86.1194C13.6665 85.967 15.3308 86.8497 16.5186 88.7677C17.9567 91.1894 19.621 93.4452 21.512 95.5356C23.1316 95.8793 24.6978 95.6827 26.2116 94.9471C27.0811 94.1826 27.4723 93.2016 27.3865 92.0045C26.577 88.8077 25.9896 85.5709 25.6242 82.2941C26.4307 82.3865 27.2144 82.2882 27.974 81.9998C29.7363 80.6268 31.4987 79.2532 33.2611 77.8802C33.9578 74.6287 35.9158 72.8632 39.1356 72.5836C40.8639 71.1206 42.8225 70.0418 45.0102 69.3468C47.3905 66.6691 49.8384 64.1185 52.3533 61.6961C53.7515 62.4924 55.2201 63.1786 56.7592 63.7559C57.1769 65.2931 58.1562 66.1759 59.6965 66.4042C62.4934 64.7917 65.4306 63.4187 68.5083 62.2846C70.283 62.4712 71.4579 63.4517 72.033 65.2272C75.7005 66.0729 79.4215 66.5637 83.1947 66.6985C84.957 67.6795 86.3276 69.0525 87.3069 70.8181C90.4721 72.0275 92.9194 74.0873 94.65 76.9975C95.6834 78.8266 96.1727 80.7881 96.1187 82.8826C96.8953 82.9826 97.5808 82.7867 98.1748 82.2941C98.7193 80.0801 98.4256 78.0203 97.2936 76.1147C97.3917 75.2319 97.881 74.7417 98.7622 74.6434C102.141 76.878 105.372 79.3303 108.455 81.9998C112.429 82.8537 115.17 81.3825 116.68 77.586C118.007 76.3825 119.475 75.402 121.085 74.6434C122.215 75.4097 123.293 75.3114 124.316 74.3492C125.883 73.9566 127.449 73.9566 129.016 74.3492C130.293 76.2648 132.056 77.0492 134.303 76.7032C135.109 75.9723 135.697 75.0895 136.066 74.0549C138.827 73.3304 141.569 73.4287 144.29 74.3492C145.835 76.4866 147.597 78.4481 149.577 80.2343C151.884 80.9476 154.234 81.5361 156.626 81.9998C156.962 82.709 157.354 83.3958 157.801 84.0596C158.562 83.7077 159.345 83.4134 160.151 83.1768C161.314 81.1335 162.684 79.2703 164.263 77.586C165.143 78.9566 166.318 80.0359 167.788 80.8228C175.532 82.2629 180.33 79.2226 182.181 71.7009C182.554 70.4444 182.357 69.2673 181.593 68.1698C177.614 66.5678 173.599 64.9006 169.55 63.1674C168.767 62.1864 167.984 61.2059 167.201 60.2249C165.822 59.8058 164.647 59.119 163.676 58.1651C166.014 55.5362 168.951 54.0649 172.488 53.7512C173.21 52.8514 174.091 52.1646 175.131 51.6914C174.579 49.6752 173.893 47.6154 173.075 45.512C173.546 43.4693 174.525 41.7038 176.012 40.2154C180.133 39.9218 184.245 40.02 188.349 40.5097C188.503 39.6399 188.307 38.8554 187.761 38.1556C184.725 36.2606 181.396 35.2796 177.775 35.2131C177.775 34.232 177.775 33.2516 177.775 32.2705C178.966 32.3659 180.14 32.2676 181.299 31.9763C182.087 30.9016 181.794 30.2148 180.418 29.9165C178.647 30.7245 176.983 30.5285 175.425 29.328C176.239 27.2935 177.022 25.2337 177.775 23.1486C180.542 23.015 183.284 23.3092 185.999 24.0313C194.481 22.4694 202.901 20.8022 211.26 19.029C213.088 17.982 215.046 17.2958 217.134 16.9692C219.782 17.2017 222.425 17.3982 225.065 17.5577C226.009 15.9675 227.282 14.6922 228.883 13.7324C240.433 12.3282 251.79 10.1701 262.956 7.25873C263.488 6.25885 263.683 5.17952 263.543 4.02191C264.734 4.11725 265.909 4.01897 267.068 3.72766C271.206 0.829233 275.71 0.240721 280.579 1.96212C282.54 3.09206 284.596 3.97483 286.747 4.61043C287.941 4.39974 289.019 3.90892 289.979 3.13914C291.545 2.74661 293.111 2.74661 294.678 3.13914C297.882 7.66481 299.155 12.6672 298.497 18.1462C297.481 19.1432 297.775 19.8299 299.378 20.206C303.7 20.9234 307.715 20.2366 311.421 18.1462C312.971 19.5945 313.852 21.3601 314.064 23.4428C314.652 23.4428 315.239 23.4428 315.826 23.4428C315.826 22.6583 315.826 21.8733 315.826 21.0888C317.211 20.9928 318.582 21.0905 319.939 21.383C322.67 24.5969 325.705 24.8912 329.044 22.2658C329.913 23.0738 329.815 23.9566 328.75 24.9141C324.38 26.3383 323.596 28.7906 326.401 32.2705C327.815 30.4344 329.675 29.4533 331.981 29.328C334.294 29.7417 336.546 30.3302 338.737 31.0935C338.674 29.6793 339.262 28.6005 340.5 27.8567C343.474 26.8627 346.411 25.6856 349.311 24.3256C350.042 23.6465 350.629 22.8614 351.074 21.9715C356.272 20.2054 361.461 18.3416 366.641 16.3807C366.935 16.5766 367.229 16.7732 367.522 16.9692C367.09 18.1703 366.601 19.3474 366.054 20.5003C365.257 21.0182 364.376 21.2147 363.41 21.0888C363.757 22.9214 364.737 24.3927 366.348 25.5026C373.554 29.0584 379.527 34.0608 384.265 40.5097C392.449 52.7407 399.792 65.4914 406.294 78.763C407.605 77.1511 409.269 76.1706 411.288 75.8204C410.673 72.2258 412.141 70.2637 415.694 69.9353C417.069 70.3367 418.439 70.7292 419.806 71.1123C419.806 72.6819 419.806 74.2509 419.806 75.8204C422.996 74.993 424.367 76.17 423.918 79.3515C428.426 79.614 432.93 79.7117 437.429 79.6458C444.922 73.0415 451.286 74.1202 456.522 82.8826C457.026 84.7417 457.711 86.5072 458.578 88.1792C460.76 88.873 462.718 89.9518 464.452 91.416C465.212 91.7044 465.996 91.8027 466.802 91.7103C466.909 94.5746 467.888 97.1252 469.739 99.3609C473.181 100.297 476.609 101.277 480.02 102.303C482.353 100.759 484.702 99.1897 487.069 97.5954C487.363 97.7914 487.657 97.9879 487.951 98.1839C487.099 98.9784 486.707 99.9589 486.776 101.126C488.682 101.859 490.052 103.232 490.888 105.246C492.61 106.011 493.981 107.188 495 108.777C493.724 108.881 492.353 108.979 490.888 109.071C490.047 109.345 489.362 109.836 488.832 110.543C488.572 113.886 487.299 116.73 485.013 119.076C482.156 120.135 479.219 120.92 476.201 121.43C474.373 123.947 473.59 126.792 473.852 129.964C474.309 133.687 474.407 137.415 474.145 141.145C473.19 142.851 471.721 143.734 469.739 143.794C468.522 145.235 467.053 146.314 465.334 147.03C464.013 145.904 462.544 145.021 460.928 144.382C456.022 144.605 451.322 143.82 446.829 142.028C445.472 141.736 444.101 141.638 442.717 141.734C440.339 150.079 437.597 158.318 434.492 166.451C434.905 168.139 435.982 169.12 437.723 169.394C438.141 170.806 438.043 172.179 437.429 173.514C435.322 173.409 433.168 173.605 430.967 174.102C429.371 172.99 427.707 172.009 425.974 171.159C422.902 172.12 419.867 173.199 416.869 174.396C414.113 174.692 411.372 175.085 408.644 175.573C407.131 176.034 405.956 176.916 405.12 178.222C407.307 179.213 409.461 180.292 411.581 181.458C410.514 184.021 410.22 186.67 410.7 189.403C412.881 194.749 414.545 200.242 415.694 205.882C414.005 205.954 412.537 206.543 411.288 207.647C411.105 208.378 411.399 208.967 412.169 209.413C411.32 210.333 410.341 211.117 409.232 211.767C409.036 212.551 408.84 213.336 408.644 214.121C409.201 216.186 409.201 218.147 408.644 220.006Z" fill="white" stroke="#A8A8A8"/>
</svg>
