<?xml version="1.0" standalone="no"?>
<svg xmlns="http://www.w3.org/2000/svg" width="2000" height="2000"><defs><clipPath id="clip-path-dot-color"><path d="M 14 626v 68h 34a 34 34, 0, 0, 0, 0 -68" transform="rotate(180,48,660)"/><path d="M 14 898v 68h 68v -34a 34 34, 0, 0, 0, -34 -34" transform="rotate(-90,48,932)"/><rect x="14" y="966" width="68" height="68" transform="rotate(0,48,1000)"/><path d="M 14 1034v 68h 34a 34 34, 0, 0, 0, 0 -68" transform="rotate(90,48,1068)"/><path d="M 14 1238v 68h 34a 34 34, 0, 0, 0, 0 -68" transform="rotate(-90,48,1272)"/><path d="M 14 1306v 68h 34a 34 34, 0, 0, 0, 0 -68" transform="rotate(90,48,1340)"/><path d="M 82 558v 68h 34a 34 34, 0, 0, 0, 0 -68" transform="rotate(-90,116,592)"/><rect x="82" y="626" width="68" height="68" transform="rotate(0,116,660)"/><rect x="82" y="694" width="68" height="68" transform="rotate(0,116,728)"/><path d="M 82 762v 68h 68v -34a 34 34, 0, 0, 0, -34 -34" transform="rotate(180,116,796)"/><path d="M 82 898v 68h 34a 34 34, 0, 0, 0, 0 -68" transform="rotate(0,116,932)"/><path d="M 82 1374v 68h 34a 34 34, 0, 0, 0, 0 -68" transform="rotate(180,116,1408)"/><rect x="150" y="694" width="68" height="68" transform="rotate(0,184,728)"/><rect x="150" y="762" width="68" height="68" transform="rotate(0,184,796)"/><path d="M 150 830v 68h 34a 34 34, 0, 0, 0, 0 -68" transform="rotate(90,184,864)"/><path d="M 150 966v 68h 34a 34 34, 0, 0, 0, 0 -68" transform="rotate(-90,184,1000)"/><rect x="150" y="1034" width="68" height="68" transform="rotate(0,184,1068)"/><path d="M 150 1102v 68h 34a 34 34, 0, 0, 0, 0 -68" transform="rotate(90,184,1136)"/><rect x="150" y="1374" width="68" height="68" transform="rotate(0,184,1408)"/><path d="M 218 558v 68h 68v -34a 34 34, 0, 0, 0, -34 -34" transform="rotate(-90,252,592)"/><rect x="218" y="626" width="68" height="68" transform="rotate(0,252,660)"/><rect x="218" y="694" width="68" height="68" transform="rotate(0,252,728)"/><circle cx="252" cy="932" r="34" transform="rotate(0,252,932)"/><path d="M 218 1170v 68h 34a 34 34, 0, 0, 0, 0 -68" transform="rotate(180,252,1204)"/><path d="M 218 1306v 68h 68v -34a 34 34, 0, 0, 0, -34 -34" transform="rotate(-90,252,1340)"/><path d="M 218 1374v 68h 68v -34a 34 34, 0, 0, 0, -34 -34" transform="rotate(90,252,1408)"/><path d="M 286 558v 68h 34a 34 34, 0, 0, 0, 0 -68" transform="rotate(0,320,592)"/><rect x="286" y="694" width="68" height="68" transform="rotate(0,320,728)"/><path d="M 286 830v 68h 34a 34 34, 0, 0, 0, 0 -68" transform="rotate(180,320,864)"/><circle cx="320" cy="1000" r="34" transform="rotate(0,320,1000)"/><rect x="286" y="1170" width="68" height="68" transform="rotate(0,320,1204)"/><rect x="286" y="1238" width="68" height="68" transform="rotate(0,320,1272)"/><path d="M 286 1306v 68h 68v -34a 34 34, 0, 0, 0, -34 -34" transform="rotate(90,320,1340)"/><rect x="354" y="694" width="68" height="68" transform="rotate(0,388,728)"/><rect x="354" y="830" width="68" height="68" transform="rotate(0,388,864)"/><path d="M 354 898v 68h 34a 34 34, 0, 0, 0, 0 -68" transform="rotate(90,388,932)"/><path d="M 354 1170v 68h 68v -34a 34 34, 0, 0, 0, -34 -34" transform="rotate(0,388,1204)"/><rect x="354" y="1238" width="68" height="68" transform="rotate(0,388,1272)"/><path d="M 422 558v 68h 34a 34 34, 0, 0, 0, 0 -68" transform="rotate(180,456,592)"/><rect x="422" y="694" width="68" height="68" transform="rotate(0,456,728)"/><rect x="422" y="830" width="68" height="68" transform="rotate(0,456,864)"/><circle cx="456" cy="1000" r="34" transform="rotate(0,456,1000)"/><circle cx="456" cy="1136" r="34" transform="rotate(0,456,1136)"/><path d="M 422 1238v 68h 34a 34 34, 0, 0, 0, 0 -68" transform="rotate(0,456,1272)"/><circle cx="456" cy="1408" r="34" transform="rotate(0,456,1408)"/><rect x="490" y="558" width="68" height="68" transform="rotate(0,524,592)"/><rect x="490" y="626" width="68" height="68" transform="rotate(0,524,660)"/><path d="M 490 694v 68h 68v -34a 34 34, 0, 0, 0, -34 -34" transform="rotate(90,524,728)"/><path d="M 490 830v 68h 68v -34a 34 34, 0, 0, 0, -34 -34" transform="rotate(0,524,864)"/><path d="M 490 898v 68h 34a 34 34, 0, 0, 0, 0 -68" transform="rotate(90,524,932)"/><path d="M 558 82v 68h 34a 34 34, 0, 0, 0, 0 -68" transform="rotate(180,592,116)"/><path d="M 558 218v 68h 68v -34a 34 34, 0, 0, 0, -34 -34" transform="rotate(-90,592,252)"/><rect x="558" y="286" width="68" height="68" transform="rotate(0,592,320)"/><rect x="558" y="354" width="68" height="68" transform="rotate(0,592,388)"/><path d="M 558 422v 68h 34a 34 34, 0, 0, 0, 0 -68" transform="rotate(90,592,456)"/><rect x="558" y="558" width="68" height="68" transform="rotate(0,592,592)"/><path d="M 558 626v 68h 68v -34a 34 34, 0, 0, 0, -34 -34" transform="rotate(90,592,660)"/><path d="M 558 966v 68h 34a 34 34, 0, 0, 0, 0 -68" transform="rotate(180,592,1000)"/><path d="M 558 1102v 68h 34a 34 34, 0, 0, 0, 0 -68" transform="rotate(180,592,1136)"/><circle cx="592" cy="1272" r="34" transform="rotate(0,592,1272)"/><path d="M 558 1374v 68h 68v -34a 34 34, 0, 0, 0, -34 -34" transform="rotate(-90,592,1408)"/><rect x="558" y="1442" width="68" height="68" transform="rotate(0,592,1476)"/><path d="M 558 1510v 68h 34a 34 34, 0, 0, 0, 0 -68" transform="rotate(90,592,1544)"/><path d="M 558 1646v 68h 68v -34a 34 34, 0, 0, 0, -34 -34" transform="rotate(-90,592,1680)"/><path d="M 558 1714v 68h 68v -34a 34 34, 0, 0, 0, -34 -34" transform="rotate(180,592,1748)"/><path d="M 558 1850v 68h 34a 34 34, 0, 0, 0, 0 -68" transform="rotate(180,592,1884)"/><path d="M 626 14v 68h 68v -34a 34 34, 0, 0, 0, -34 -34" transform="rotate(-90,660,48)"/><rect x="626" y="82" width="68" height="68" transform="rotate(0,660,116)"/><rect x="626" y="150" width="68" height="68" transform="rotate(0,660,184)"/><path d="M 626 218v 68h 68v -34a 34 34, 0, 0, 0, -34 -34" transform="rotate(90,660,252)"/><path d="M 626 354v 68h 34a 34 34, 0, 0, 0, 0 -68" transform="rotate(0,660,388)"/><path d="M 626 490v 68h 34a 34 34, 0, 0, 0, 0 -68" transform="rotate(-90,660,524)"/><path d="M 626 558v 68h 68v -34a 34 34, 0, 0, 0, -34 -34" transform="rotate(90,660,592)"/><path d="M 626 694v 68h 34a 34 34, 0, 0, 0, 0 -68" transform="rotate(-90,660,728)"/><path d="M 626 762v 68h 68v -34a 34 34, 0, 0, 0, -34 -34" transform="rotate(180,660,796)"/><path d="M 626 966v 68h 34a 34 34, 0, 0, 0, 0 -68" transform="rotate(0,660,1000)"/><path d="M 626 1102v 68h 34a 34 34, 0, 0, 0, 0 -68" transform="rotate(0,660,1136)"/><path d="M 626 1374v 68h 34a 34 34, 0, 0, 0, 0 -68" transform="rotate(0,660,1408)"/><path d="M 626 1578v 68h 68v -34a 34 34, 0, 0, 0, -34 -34" transform="rotate(-90,660,1612)"/><rect x="626" y="1646" width="68" height="68" transform="rotate(0,660,1680)"/><path d="M 626 1714v 68h 68v -34a 34 34, 0, 0, 0, -34 -34" transform="rotate(90,660,1748)"/><path d="M 626 1850v 68h 34a 34 34, 0, 0, 0, 0 -68" transform="rotate(0,660,1884)"/><rect x="694" y="14" width="68" height="68" transform="rotate(0,728,48)"/><path d="M 694 150v 68h 34a 34 34, 0, 0, 0, 0 -68" transform="rotate(0,728,184)"/><circle cx="728" cy="456" r="34" transform="rotate(0,728,456)"/><rect x="694" y="762" width="68" height="68" transform="rotate(0,728,796)"/><path d="M 694 1034v 68h 34a 34 34, 0, 0, 0, 0 -68" transform="rotate(180,728,1068)"/><path d="M 694 1170v 68h 34a 34 34, 0, 0, 0, 0 -68" transform="rotate(180,728,1204)"/><path d="M 694 1442v 68h 34a 34 34, 0, 0, 0, 0 -68" transform="rotate(-90,728,1476)"/><rect x="694" y="1510" width="68" height="68" transform="rotate(0,728,1544)"/><rect x="694" y="1578" width="68" height="68" transform="rotate(0,728,1612)"/><circle cx="728" cy="1816" r="34" transform="rotate(0,728,1816)"/><path d="M 762 14v 68h 34a 34 34, 0, 0, 0, 0 -68" transform="rotate(0,796,48)"/><path d="M 762 218v 68h 34a 34 34, 0, 0, 0, 0 -68" transform="rotate(180,796,252)"/><path d="M 762 354v 68h 34a 34 34, 0, 0, 0, 0 -68" transform="rotate(180,796,388)"/><circle cx="796" cy="592" r="34" transform="rotate(0,796,592)"/><path d="M 762 694v 68h 68v -34a 34 34, 0, 0, 0, -34 -34" transform="rotate(-90,796,728)"/><path d="M 762 762v 68h 68v -34a 34 34, 0, 0, 0, -34 -34" transform="rotate(90,796,796)"/><path d="M 762 898v 68h 34a 34 34, 0, 0, 0, 0 -68" transform="rotate(-90,796,932)"/><rect x="762" y="966" width="68" height="68" transform="rotate(0,796,1000)"/><rect x="762" y="1034" width="68" height="68" transform="rotate(0,796,1068)"/><rect x="762" y="1102" width="68" height="68" transform="rotate(0,796,1136)"/><path d="M 762 1170v 68h 68v -34a 34 34, 0, 0, 0, -34 -34" transform="rotate(90,796,1204)"/><path d="M 762 1578v 68h 68v -34a 34 34, 0, 0, 0, -34 -34" transform="rotate(0,796,1612)"/><rect x="762" y="1646" width="68" height="68" transform="rotate(0,796,1680)"/><path d="M 762 1714v 68h 68v -34a 34 34, 0, 0, 0, -34 -34" transform="rotate(180,796,1748)"/><circle cx="796" cy="1952" r="34" transform="rotate(0,796,1952)"/><path d="M 830 218v 68h 68v -34a 34 34, 0, 0, 0, -34 -34" transform="rotate(0,864,252)"/><rect x="830" y="286" width="68" height="68" transform="rotate(0,864,320)"/><rect x="830" y="354" width="68" height="68" transform="rotate(0,864,388)"/><rect x="830" y="422" width="68" height="68" transform="rotate(0,864,456)"/><path d="M 830 490v 68h 68v -34a 34 34, 0, 0, 0, -34 -34" transform="rotate(180,864,524)"/><path d="M 830 626v 68h 68v -34a 34 34, 0, 0, 0, -34 -34" transform="rotate(-90,864,660)"/><path d="M 830 694v 68h 68v -34a 34 34, 0, 0, 0, -34 -34" transform="rotate(90,864,728)"/><rect x="830" y="966" width="68" height="68" transform="rotate(0,864,1000)"/><path d="M 830 1034v 68h 68v -34a 34 34, 0, 0, 0, -34 -34" transform="rotate(90,864,1068)"/><path d="M 830 1238v 68h 68v -34a 34 34, 0, 0, 0, -34 -34" transform="rotate(-90,864,1272)"/><rect x="830" y="1306" width="68" height="68" transform="rotate(0,864,1340)"/><rect x="830" y="1374" width="68" height="68" transform="rotate(0,864,1408)"/><rect x="830" y="1442" width="68" height="68" transform="rotate(0,864,1476)"/><path d="M 830 1510v 68h 68v -34a 34 34, 0, 0, 0, -34 -34" transform="rotate(180,864,1544)"/><path d="M 830 1714v 68h 34a 34 34, 0, 0, 0, 0 -68" transform="rotate(0,864,1748)"/><circle cx="864" cy="1884" r="34" transform="rotate(0,864,1884)"/><circle cx="932" cy="48" r="34" transform="rotate(0,932,48)"/><path d="M 898 150v 68h 34a 34 34, 0, 0, 0, 0 -68" transform="rotate(180,932,184)"/><path d="M 898 286v 68h 68v -34a 34 34, 0, 0, 0, -34 -34" transform="rotate(0,932,320)"/><rect x="898" y="354" width="68" height="68" transform="rotate(0,932,388)"/><path d="M 898 490v 68h 68v -34a 34 34, 0, 0, 0, -34 -34" transform="rotate(0,932,524)"/><rect x="898" y="558" width="68" height="68" transform="rotate(0,932,592)"/><path d="M 898 626v 68h 68v -34a 34 34, 0, 0, 0, -34 -34" transform="rotate(90,932,660)"/><path d="M 898 762v 68h 34a 34 34, 0, 0, 0, 0 -68" transform="rotate(180,932,796)"/><path d="M 898 966v 68h 34a 34 34, 0, 0, 0, 0 -68" transform="rotate(0,932,1000)"/><path d="M 898 1170v 68h 68v -34a 34 34, 0, 0, 0, -34 -34" transform="rotate(-90,932,1204)"/><path d="M 898 1238v 68h 68v -34a 34 34, 0, 0, 0, -34 -34" transform="rotate(90,932,1272)"/><path d="M 898 1374v 68h 34a 34 34, 0, 0, 0, 0 -68" transform="rotate(0,932,1408)"/><path d="M 898 1510v 68h 34a 34 34, 0, 0, 0, 0 -68" transform="rotate(0,932,1544)"/><circle cx="932" cy="1680" r="34" transform="rotate(0,932,1680)"/><circle cx="932" cy="1816" r="34" transform="rotate(0,932,1816)"/><path d="M 898 1918v 68h 34a 34 34, 0, 0, 0, 0 -68" transform="rotate(180,932,1952)"/><path d="M 966 82v 68h 68v -34a 34 34, 0, 0, 0, -34 -34" transform="rotate(-90,1000,116)"/><rect x="966" y="150" width="68" height="68" transform="rotate(0,1000,184)"/><rect x="966" y="354" width="68" height="68" transform="rotate(0,1000,388)"/><path d="M 966 422v 68h 34a 34 34, 0, 0, 0, 0 -68" transform="rotate(90,1000,456)"/><path d="M 966 558v 68h 34a 34 34, 0, 0, 0, 0 -68" transform="rotate(0,1000,592)"/><path d="M 966 694v 68h 34a 34 34, 0, 0, 0, 0 -68" transform="rotate(-90,1000,728)"/><rect x="966" y="762" width="68" height="68" transform="rotate(0,1000,796)"/><rect x="966" y="830" width="68" height="68" transform="rotate(0,1000,864)"/><path d="M 966 898v 68h 34a 34 34, 0, 0, 0, 0 -68" transform="rotate(90,1000,932)"/><rect x="966" y="1170" width="68" height="68" transform="rotate(0,1000,1204)"/><circle cx="1000" cy="1340" r="34" transform="rotate(0,1000,1340)"/><circle cx="1000" cy="1612" r="34" transform="rotate(0,1000,1612)"/><path d="M 966 1714v 68h 34a 34 34, 0, 0, 0, 0 -68" transform="rotate(180,1000,1748)"/><path d="M 966 1918v 68h 34a 34 34, 0, 0, 0, 0 -68" transform="rotate(0,1000,1952)"/><path d="M 1034 14v 68h 68v -34a 34 34, 0, 0, 0, -34 -34" transform="rotate(-90,1068,48)"/><rect x="1034" y="82" width="68" height="68" transform="rotate(0,1068,116)"/><rect x="1034" y="150" width="68" height="68" transform="rotate(0,1068,184)"/><path d="M 1034 286v 68h 34a 34 34, 0, 0, 0, 0 -68" transform="rotate(-90,1068,320)"/><rect x="1034" y="354" width="68" height="68" transform="rotate(0,1068,388)"/><path d="M 1034 490v 68h 34a 34 34, 0, 0, 0, 0 -68" transform="rotate(180,1068,524)"/><path d="M 1034 626v 68h 34a 34 34, 0, 0, 0, 0 -68" transform="rotate(180,1068,660)"/><path d="M 1034 1034v 68h 68v -34a 34 34, 0, 0, 0, -34 -34" transform="rotate(-90,1068,1068)"/><rect x="1034" y="1102" width="68" height="68" transform="rotate(0,1068,1136)"/><rect x="1034" y="1170" width="68" height="68" transform="rotate(0,1068,1204)"/><path d="M 1034 1238v 68h 34a 34 34, 0, 0, 0, 0 -68" transform="rotate(90,1068,1272)"/><circle cx="1068" cy="1476" r="34" transform="rotate(0,1068,1476)"/><path d="M 1034 1646v 68h 68v -34a 34 34, 0, 0, 0, -34 -34" transform="rotate(-90,1068,1680)"/><rect x="1034" y="1714" width="68" height="68" transform="rotate(0,1068,1748)"/><path d="M 1034 1782v 68h 34a 34 34, 0, 0, 0, 0 -68" transform="rotate(90,1068,1816)"/><rect x="1102" y="14" width="68" height="68" transform="rotate(0,1136,48)"/><rect x="1102" y="150" width="68" height="68" transform="rotate(0,1136,184)"/><path d="M 1102 354v 68h 68v -34a 34 34, 0, 0, 0, -34 -34" transform="rotate(0,1136,388)"/><rect x="1102" y="422" width="68" height="68" transform="rotate(0,1136,456)"/><rect x="1102" y="490" width="68" height="68" transform="rotate(0,1136,524)"/><rect x="1102" y="558" width="68" height="68" transform="rotate(0,1136,592)"/><rect x="1102" y="626" width="68" height="68" transform="rotate(0,1136,660)"/><path d="M 1102 694v 68h 34a 34 34, 0, 0, 0, 0 -68" transform="rotate(90,1136,728)"/><path d="M 1102 898v 68h 34a 34 34, 0, 0, 0, 0 -68" transform="rotate(180,1136,932)"/><path d="M 1102 1034v 68h 68v -34a 34 34, 0, 0, 0, -34 -34" transform="rotate(0,1136,1068)"/><rect x="1102" y="1102" width="68" height="68" transform="rotate(0,1136,1136)"/><path d="M 1102 1170v 68h 68v -34a 34 34, 0, 0, 0, -34 -34" transform="rotate(90,1136,1204)"/><path d="M 1102 1374v 68h 34a 34 34, 0, 0, 0, 0 -68" transform="rotate(180,1136,1408)"/><path d="M 1102 1578v 68h 34a 34 34, 0, 0, 0, 0 -68" transform="rotate(-90,1136,1612)"/><rect x="1102" y="1646" width="68" height="68" transform="rotate(0,1136,1680)"/><path d="M 1102 1714v 68h 68v -34a 34 34, 0, 0, 0, -34 -34" transform="rotate(90,1136,1748)"/><path d="M 1102 1850v 68h 34a 34 34, 0, 0, 0, 0 -68" transform="rotate(-90,1136,1884)"/><path d="M 1102 1918v 68h 34a 34 34, 0, 0, 0, 0 -68" transform="rotate(90,1136,1952)"/><rect x="1170" y="14" width="68" height="68" transform="rotate(0,1204,48)"/><rect x="1170" y="82" width="68" height="68" transform="rotate(0,1204,116)"/><rect x="1170" y="150" width="68" height="68" transform="rotate(0,1204,184)"/><path d="M 1170 218v 68h 34a 34 34, 0, 0, 0, 0 -68" transform="rotate(90,1204,252)"/><path d="M 1170 830v 68h 68v -34a 34 34, 0, 0, 0, -34 -34" transform="rotate(-90,1204,864)"/><rect x="1170" y="898" width="68" height="68" transform="rotate(0,1204,932)"/><path d="M 1170 966v 68h 68v -34a 34 34, 0, 0, 0, -34 -34" transform="rotate(180,1204,1000)"/><path d="M 1170 1102v 68h 34a 34 34, 0, 0, 0, 0 -68" transform="rotate(0,1204,1136)"/><circle cx="1204" cy="1272" r="34" transform="rotate(0,1204,1272)"/><rect x="1170" y="1374" width="68" height="68" transform="rotate(0,1204,1408)"/><path d="M 1170 1442v 68h 34a 34 34, 0, 0, 0, 0 -68" transform="rotate(90,1204,1476)"/><path d="M 1170 1646v 68h 34a 34 34, 0, 0, 0, 0 -68" transform="rotate(0,1204,1680)"/><path d="M 1170 1782v 68h 34a 34 34, 0, 0, 0, 0 -68" transform="rotate(180,1204,1816)"/><rect x="1238" y="14" width="68" height="68" transform="rotate(0,1272,48)"/><rect x="1238" y="82" width="68" height="68" transform="rotate(0,1272,116)"/><path d="M 1238 286v 68h 68v -34a 34 34, 0, 0, 0, -34 -34" transform="rotate(-90,1272,320)"/><rect x="1238" y="354" width="68" height="68" transform="rotate(0,1272,388)"/><rect x="1238" y="422" width="68" height="68" transform="rotate(0,1272,456)"/><path d="M 1238 490v 68h 68v -34a 34 34, 0, 0, 0, -34 -34" transform="rotate(180,1272,524)"/><path d="M 1238 762v 68h 34a 34 34, 0, 0, 0, 0 -68" transform="rotate(-90,1272,796)"/><path d="M 1238 830v 68h 68v -34a 34 34, 0, 0, 0, -34 -34" transform="rotate(90,1272,864)"/><path d="M 1238 966v 68h 68v -34a 34 34, 0, 0, 0, -34 -34" transform="rotate(0,1272,1000)"/><path d="M 1238 1034v 68h 34a 34 34, 0, 0, 0, 0 -68" transform="rotate(90,1272,1068)"/><path d="M 1238 1374v 68h 34a 34 34, 0, 0, 0, 0 -68" transform="rotate(0,1272,1408)"/><rect x="1238" y="1782" width="68" height="68" transform="rotate(0,1272,1816)"/><circle cx="1272" cy="1952" r="34" transform="rotate(0,1272,1952)"/><rect x="1306" y="14" width="68" height="68" transform="rotate(0,1340,48)"/><rect x="1306" y="82" width="68" height="68" transform="rotate(0,1340,116)"/><path d="M 1306 286v 68h 68v -34a 34 34, 0, 0, 0, -34 -34" transform="rotate(0,1340,320)"/><rect x="1306" y="354" width="68" height="68" transform="rotate(0,1340,388)"/><path d="M 1306 490v 68h 34a 34 34, 0, 0, 0, 0 -68" transform="rotate(0,1340,524)"/><path d="M 1306 626v 68h 68v -34a 34 34, 0, 0, 0, -34 -34" transform="rotate(-90,1340,660)"/><path d="M 1306 694v 68h 68v -34a 34 34, 0, 0, 0, -34 -34" transform="rotate(180,1340,728)"/><path d="M 1306 1442v 68h 68v -34a 34 34, 0, 0, 0, -34 -34" transform="rotate(-90,1340,1476)"/><path d="M 1306 1510v 68h 68v -34a 34 34, 0, 0, 0, -34 -34" transform="rotate(180,1340,1544)"/><rect x="1306" y="1782" width="68" height="68" transform="rotate(0,1340,1816)"/><path d="M 1374 14v 68h 68v -34a 34 34, 0, 0, 0, -34 -34" transform="rotate(0,1408,48)"/><rect x="1374" y="82" width="68" height="68" transform="rotate(0,1408,116)"/><path d="M 1374 150v 68h 34a 34 34, 0, 0, 0, 0 -68" transform="rotate(90,1408,184)"/><path d="M 1374 354v 68h 68v -34a 34 34, 0, 0, 0, -34 -34" transform="rotate(0,1408,388)"/><path d="M 1374 422v 68h 34a 34 34, 0, 0, 0, 0 -68" transform="rotate(90,1408,456)"/><rect x="1374" y="626" width="68" height="68" transform="rotate(0,1408,660)"/><rect x="1374" y="694" width="68" height="68" transform="rotate(0,1408,728)"/><rect x="1374" y="762" width="68" height="68" transform="rotate(0,1408,796)"/><rect x="1374" y="830" width="68" height="68" transform="rotate(0,1408,864)"/><rect x="1374" y="898" width="68" height="68" transform="rotate(0,1408,932)"/><rect x="1374" y="966" width="68" height="68" transform="rotate(0,1408,1000)"/><path d="M 1374 1034v 68h 68v -34a 34 34, 0, 0, 0, -34 -34" transform="rotate(180,1408,1068)"/><path d="M 1374 1374v 68h 68v -34a 34 34, 0, 0, 0, -34 -34" transform="rotate(-90,1408,1408)"/><rect x="1374" y="1442" width="68" height="68" transform="rotate(0,1408,1476)"/><rect x="1374" y="1510" width="68" height="68" transform="rotate(0,1408,1544)"/><rect x="1374" y="1578" width="68" height="68" transform="rotate(0,1408,1612)"/><rect x="1374" y="1646" width="68" height="68" transform="rotate(0,1408,1680)"/><rect x="1374" y="1714" width="68" height="68" transform="rotate(0,1408,1748)"/><rect x="1374" y="1782" width="68" height="68" transform="rotate(0,1408,1816)"/><path d="M 1374 1850v 68h 68v -34a 34 34, 0, 0, 0, -34 -34" transform="rotate(180,1408,1884)"/><path d="M 1442 558v 68h 34a 34 34, 0, 0, 0, 0 -68" transform="rotate(-90,1476,592)"/><rect x="1442" y="626" width="68" height="68" transform="rotate(0,1476,660)"/><path d="M 1442 694v 68h 68v -34a 34 34, 0, 0, 0, -34 -34" transform="rotate(90,1476,728)"/><rect x="1442" y="830" width="68" height="68" transform="rotate(0,1476,864)"/><rect x="1442" y="1034" width="68" height="68" transform="rotate(0,1476,1068)"/><path d="M 1442 1238v 68h 68v -34a 34 34, 0, 0, 0, -34 -34" transform="rotate(-90,1476,1272)"/><rect x="1442" y="1306" width="68" height="68" transform="rotate(0,1476,1340)"/><rect x="1442" y="1374" width="68" height="68" transform="rotate(0,1476,1408)"/><rect x="1442" y="1646" width="68" height="68" transform="rotate(0,1476,1680)"/><rect x="1442" y="1714" width="68" height="68" transform="rotate(0,1476,1748)"/><rect x="1442" y="1782" width="68" height="68" transform="rotate(0,1476,1816)"/><path d="M 1442 1850v 68h 68v -34a 34 34, 0, 0, 0, -34 -34" transform="rotate(90,1476,1884)"/><path d="M 1510 626v 68h 34a 34 34, 0, 0, 0, 0 -68" transform="rotate(0,1544,660)"/><path d="M 1510 830v 68h 68v -34a 34 34, 0, 0, 0, -34 -34" transform="rotate(0,1544,864)"/><rect x="1510" y="898" width="68" height="68" transform="rotate(0,1544,932)"/><rect x="1510" y="966" width="68" height="68" transform="rotate(0,1544,1000)"/><rect x="1510" y="1034" width="68" height="68" transform="rotate(0,1544,1068)"/><rect x="1510" y="1102" width="68" height="68" transform="rotate(0,1544,1136)"/><rect x="1510" y="1170" width="68" height="68" transform="rotate(0,1544,1204)"/><rect x="1510" y="1238" width="68" height="68" transform="rotate(0,1544,1272)"/><rect x="1510" y="1306" width="68" height="68" transform="rotate(0,1544,1340)"/><rect x="1510" y="1374" width="68" height="68" transform="rotate(0,1544,1408)"/><circle cx="1544" cy="1544" r="34" transform="rotate(0,1544,1544)"/><rect x="1510" y="1646" width="68" height="68" transform="rotate(0,1544,1680)"/><path d="M 1510 1782v 68h 34a 34 34, 0, 0, 0, 0 -68" transform="rotate(0,1544,1816)"/><path d="M 1578 558v 68h 34a 34 34, 0, 0, 0, 0 -68" transform="rotate(180,1612,592)"/><circle cx="1612" cy="728" r="34" transform="rotate(0,1612,728)"/><rect x="1578" y="1102" width="68" height="68" transform="rotate(0,1612,1136)"/><rect x="1578" y="1170" width="68" height="68" transform="rotate(0,1612,1204)"/><rect x="1578" y="1306" width="68" height="68" transform="rotate(0,1612,1340)"/><rect x="1578" y="1374" width="68" height="68" transform="rotate(0,1612,1408)"/><rect x="1578" y="1646" width="68" height="68" transform="rotate(0,1612,1680)"/><path d="M 1578 1714v 68h 34a 34 34, 0, 0, 0, 0 -68" transform="rotate(90,1612,1748)"/><rect x="1646" y="558" width="68" height="68" transform="rotate(0,1680,592)"/><circle cx="1680" cy="796" r="34" transform="rotate(0,1680,796)"/><path d="M 1646 1034v 68h 34a 34 34, 0, 0, 0, 0 -68" transform="rotate(-90,1680,1068)"/><rect x="1646" y="1102" width="68" height="68" transform="rotate(0,1680,1136)"/><rect x="1646" y="1170" width="68" height="68" transform="rotate(0,1680,1204)"/><rect x="1646" y="1238" width="68" height="68" transform="rotate(0,1680,1272)"/><rect x="1646" y="1306" width="68" height="68" transform="rotate(0,1680,1340)"/><rect x="1646" y="1374" width="68" height="68" transform="rotate(0,1680,1408)"/><rect x="1646" y="1442" width="68" height="68" transform="rotate(0,1680,1476)"/><rect x="1646" y="1510" width="68" height="68" transform="rotate(0,1680,1544)"/><rect x="1646" y="1578" width="68" height="68" transform="rotate(0,1680,1612)"/><path d="M 1646 1646v 68h 68v -34a 34 34, 0, 0, 0, -34 -34" transform="rotate(90,1680,1680)"/><path d="M 1646 1850v 68h 34a 34 34, 0, 0, 0, 0 -68" transform="rotate(180,1680,1884)"/><path d="M 1714 558v 68h 34a 34 34, 0, 0, 0, 0 -68" transform="rotate(0,1748,592)"/><path d="M 1714 898v 68h 34a 34 34, 0, 0, 0, 0 -68" transform="rotate(180,1748,932)"/><rect x="1714" y="1102" width="68" height="68" transform="rotate(0,1748,1136)"/><rect x="1714" y="1578" width="68" height="68" transform="rotate(0,1748,1612)"/><rect x="1714" y="1850" width="68" height="68" transform="rotate(0,1748,1884)"/><path d="M 1782 898v 68h 34a 34 34, 0, 0, 0, 0 -68" transform="rotate(0,1816,932)"/><path d="M 1782 1102v 68h 34a 34 34, 0, 0, 0, 0 -68" transform="rotate(0,1816,1136)"/><path d="M 1782 1374v 68h 68v -34a 34 34, 0, 0, 0, -34 -34" transform="rotate(-90,1816,1408)"/><path d="M 1782 1442v 68h 68v -34a 34 34, 0, 0, 0, -34 -34" transform="rotate(180,1816,1476)"/><path d="M 1782 1578v 68h 68v -34a 34 34, 0, 0, 0, -34 -34" transform="rotate(0,1816,1612)"/><rect x="1782" y="1646" width="68" height="68" transform="rotate(0,1816,1680)"/><rect x="1782" y="1714" width="68" height="68" transform="rotate(0,1816,1748)"/><rect x="1782" y="1782" width="68" height="68" transform="rotate(0,1816,1816)"/><rect x="1782" y="1850" width="68" height="68" transform="rotate(0,1816,1884)"/><path d="M 1782 1918v 68h 68v -34a 34 34, 0, 0, 0, -34 -34" transform="rotate(180,1816,1952)"/><path d="M 1850 558v 68h 34a 34 34, 0, 0, 0, 0 -68" transform="rotate(-90,1884,592)"/><path d="M 1850 626v 68h 68v -34a 34 34, 0, 0, 0, -34 -34" transform="rotate(180,1884,660)"/><path d="M 1850 830v 68h 34a 34 34, 0, 0, 0, 0 -68" transform="rotate(180,1884,864)"/><circle cx="1884" cy="1068" r="34" transform="rotate(0,1884,1068)"/><circle cx="1884" cy="1272" r="34" transform="rotate(0,1884,1272)"/><rect x="1850" y="1374" width="68" height="68" transform="rotate(0,1884,1408)"/><rect x="1850" y="1442" width="68" height="68" transform="rotate(0,1884,1476)"/><path d="M 1850 1510v 68h 34a 34 34, 0, 0, 0, 0 -68" transform="rotate(90,1884,1544)"/><rect x="1850" y="1646" width="68" height="68" transform="rotate(0,1884,1680)"/><rect x="1850" y="1714" width="68" height="68" transform="rotate(0,1884,1748)"/><path d="M 1850 1782v 68h 68v -34a 34 34, 0, 0, 0, -34 -34" transform="rotate(90,1884,1816)"/><path d="M 1850 1918v 68h 34a 34 34, 0, 0, 0, 0 -68" transform="rotate(0,1884,1952)"/><path d="M 1918 626v 68h 68v -34a 34 34, 0, 0, 0, -34 -34" transform="rotate(0,1952,660)"/><path d="M 1918 694v 68h 34a 34 34, 0, 0, 0, 0 -68" transform="rotate(90,1952,728)"/><path d="M 1918 830v 68h 68v -34a 34 34, 0, 0, 0, -34 -34" transform="rotate(0,1952,864)"/><path d="M 1918 898v 68h 34a 34 34, 0, 0, 0, 0 -68" transform="rotate(90,1952,932)"/><path d="M 1918 1374v 68h 68v -34a 34 34, 0, 0, 0, -34 -34" transform="rotate(0,1952,1408)"/><path d="M 1918 1442v 68h 68v -34a 34 34, 0, 0, 0, -34 -34" transform="rotate(90,1952,1476)"/><path d="M 1918 1578v 68h 34a 34 34, 0, 0, 0, 0 -68" transform="rotate(-90,1952,1612)"/><path d="M 1918 1646v 68h 68v -34a 34 34, 0, 0, 0, -34 -34" transform="rotate(90,1952,1680)"/></clipPath><clipPath id="clip-path-corners-square-color-0-0"><path clip-rule="evenodd" d="M 14 184v 136a 170 170, 0, 0, 0, 170 170h 136a 170 170, 0, 0, 0, 170 -170v -136a 170 170, 0, 0, 0, -170 -170h -136a 170 170, 0, 0, 0, -170 170M 184 82h 136a 102 102, 0, 0, 1, 102 102v 136a 102 102, 0, 0, 1, -102 102h -136a 102 102, 0, 0, 1, -102 -102v -136a 102 102, 0, 0, 1, 102 -102" transform="rotate(0,252,252)"/></clipPath><clipPath id="clip-path-corners-dot-color-0-0"><circle cx="252" cy="252" r="102" transform="rotate(0,252,252)"/></clipPath><clipPath id="clip-path-corners-square-color-1-0"><path clip-rule="evenodd" d="M 1510 184v 136a 170 170, 0, 0, 0, 170 170h 136a 170 170, 0, 0, 0, 170 -170v -136a 170 170, 0, 0, 0, -170 -170h -136a 170 170, 0, 0, 0, -170 170M 1680 82h 136a 102 102, 0, 0, 1, 102 102v 136a 102 102, 0, 0, 1, -102 102h -136a 102 102, 0, 0, 1, -102 -102v -136a 102 102, 0, 0, 1, 102 -102" transform="rotate(90,1748,252)"/></clipPath><clipPath id="clip-path-corners-dot-color-1-0"><circle cx="1748" cy="252" r="102" transform="rotate(90,1748,252)"/></clipPath><clipPath id="clip-path-corners-square-color-0-1"><path clip-rule="evenodd" d="M 14 1680v 136a 170 170, 0, 0, 0, 170 170h 136a 170 170, 0, 0, 0, 170 -170v -136a 170 170, 0, 0, 0, -170 -170h -136a 170 170, 0, 0, 0, -170 170M 184 1578h 136a 102 102, 0, 0, 1, 102 102v 136a 102 102, 0, 0, 1, -102 102h -136a 102 102, 0, 0, 1, -102 -102v -136a 102 102, 0, 0, 1, 102 -102" transform="rotate(-90,252,1748)"/></clipPath><clipPath id="clip-path-corners-dot-color-0-1"><circle cx="252" cy="1748" r="102" transform="rotate(-90,252,1748)"/></clipPath></defs><rect x="0" y="0" height="2000" width="2000" clip-path="url('#clip-path-background-color')" fill="#00000000"/><rect x="14" y="14" height="1972" width="1972" clip-path="url('#clip-path-dot-color')" fill="#000000"/><rect x="14" y="14" height="476" width="476" clip-path="url('#clip-path-corners-square-color-0-0')" fill="#000000"/><rect x="150" y="150" height="204" width="204" clip-path="url('#clip-path-corners-dot-color-0-0')" fill="#000000"/><rect x="1510" y="14" height="476" width="476" clip-path="url('#clip-path-corners-square-color-1-0')" fill="#000000"/><rect x="1646" y="150" height="204" width="204" clip-path="url('#clip-path-corners-dot-color-1-0')" fill="#000000"/><rect x="14" y="1510" height="476" width="476" clip-path="url('#clip-path-corners-square-color-0-1')" fill="#000000"/><rect x="150" y="1646" height="204" width="204" clip-path="url('#clip-path-corners-dot-color-0-1')" fill="#000000"/></svg>