<svg width="26" height="26" viewBox="0 0 26 26" fill="none" xmlns="http://www.w3.org/2000/svg">
<path d="M13 6.33333V23.6667M13 6.33333H8.28572C7.59109 6.33333 6.92493 6.05239 6.43377 5.55228C5.9426 5.05219 5.66667 4.37391 5.66667 3.66667C5.66667 2.95943 5.9426 2.28115 6.43377 1.78105C6.92493 1.28095 7.59109 1 8.28572 1C11.9524 1 13 6.33333 13 6.33333ZM13 6.33333H17.7143C18.4089 6.33333 19.0751 6.05239 19.5663 5.55228C20.0573 5.05219 20.3333 4.37391 20.3333 3.66667C20.3333 2.95943 20.0573 2.28115 19.5663 1.78105C19.0751 1.28095 18.4089 1 17.7143 1C14.0476 1 13 6.33333 13 6.33333ZM3.66667 13H22.3333V20.7333C22.3333 22.2268 22.3333 22.9736 22.0427 23.544C21.7871 24.0457 21.3791 24.4537 20.8773 24.7093C20.3069 25 19.5601 25 18.0667 25H7.93333C6.43985 25 5.69312 25 5.12269 24.7093C4.62092 24.4537 4.21297 24.0457 3.95732 23.544C3.66667 22.9736 3.66667 22.2268 3.66667 20.7333V13ZM3.13333 13H22.8667C23.6135 13 23.9868 13 24.272 12.8547C24.5229 12.7268 24.7268 12.5229 24.8547 12.272C25 11.9868 25 11.6135 25 10.8667V8.46667C25 7.71993 25 7.34656 24.8547 7.06135C24.7268 6.81047 24.5229 6.60649 24.272 6.47865C23.9868 6.33333 23.6135 6.33333 22.8667 6.33333H3.13333C2.3866 6.33333 2.01323 6.33333 1.72801 6.47865C1.47713 6.60649 1.27316 6.81047 1.14532 7.06135C1 7.34656 1 7.71993 1 8.46667V10.8667C1 11.6135 1 11.9868 1.14532 12.272C1.27316 12.5229 1.47713 12.7268 1.72801 12.8547C2.01323 13 2.3866 13 3.13333 13Z" stroke="white" stroke-width="2" stroke-linecap="round" stroke-linejoin="round"/>
</svg>