<svg width="24" height="24" viewBox="0 0 24 24" fill="none" xmlns="http://www.w3.org/2000/svg">
<path d="M9.00029 13.0008C8.71696 13.0008 8.47946 12.9049 8.28779 12.7133C8.09613 12.5216 8.00029 12.2841 8.00029 12.0008V5.82578L6.12529 7.70078C5.94196 7.88411 5.71279 7.97578 5.43779 7.97578C5.16279 7.97578 4.92529 7.88411 4.72529 7.70078C4.52529 7.50078 4.42529 7.26328 4.42529 6.98828C4.42529 6.71328 4.52529 6.47578 4.72529 6.27578L8.30029 2.70078C8.40029 2.60078 8.50863 2.52995 8.62529 2.48828C8.74196 2.44661 8.86696 2.42578 9.00029 2.42578C9.13363 2.42578 9.25863 2.44661 9.37529 2.48828C9.49196 2.52995 9.60029 2.60078 9.70029 2.70078L13.3003 6.30078C13.5003 6.50078 13.5961 6.73411 13.5878 7.00078C13.5795 7.26745 13.4753 7.50078 13.2753 7.70078C13.0753 7.88411 12.842 7.97995 12.5753 7.98828C12.3086 7.99661 12.0753 7.90078 11.8753 7.70078L10.0003 5.82578V12.0008C10.0003 12.2841 9.90446 12.5216 9.71279 12.7133C9.52113 12.9049 9.28363 13.0008 9.00029 13.0008ZM15.0003 21.5758C14.867 21.5758 14.742 21.5549 14.6253 21.5133C14.5086 21.4716 14.4003 21.4008 14.3003 21.3008L10.7003 17.7008C10.5003 17.5008 10.4045 17.2674 10.4128 17.0008C10.4211 16.7341 10.5253 16.5008 10.7253 16.3008C10.9253 16.1174 11.1586 16.0216 11.4253 16.0133C11.692 16.0049 11.9253 16.1008 12.1253 16.3008L14.0003 18.1758V12.0008C14.0003 11.7174 14.0961 11.4799 14.2878 11.2883C14.4795 11.0966 14.717 11.0008 15.0003 11.0008C15.2836 11.0008 15.5211 11.0966 15.7128 11.2883C15.9045 11.4799 16.0003 11.7174 16.0003 12.0008V18.1758L17.8753 16.3008C18.0586 16.1174 18.2878 16.0258 18.5628 16.0258C18.8378 16.0258 19.0753 16.1174 19.2753 16.3008C19.4753 16.5008 19.5753 16.7383 19.5753 17.0133C19.5753 17.2883 19.4753 17.5258 19.2753 17.7258L15.7003 21.3008C15.6003 21.4008 15.492 21.4716 15.3753 21.5133C15.2586 21.5549 15.1336 21.5758 15.0003 21.5758Z" fill="#333333"/>
</svg>
