<svg width="168" height="32" viewBox="0 0 168 32" fill="none" xmlns="http://www.w3.org/2000/svg">
<g clip-path="url(#clip0_11152_38598)">
<path d="M51.6836 17.1103C51.6836 11.8297 54.8899 9.21789 58.5011 9.21789C60.7838 9.21789 62.2899 10.0028 63.4123 11.5965H63.7012V3.87305H67.6865V24.5911H63.9901L63.7012 22.5812H63.4123C62.2851 24.1487 60.8075 24.9907 58.5011 24.9907C54.8899 24.9979 51.6836 22.4147 51.6836 17.1103ZM63.7864 17.1103C63.7864 14.2559 62.1288 12.5266 59.7608 12.5266C57.4497 12.5266 55.7731 14.0656 55.7731 17.1103C55.7731 20.1549 57.4497 21.6963 59.7608 21.6963C62.1407 21.6892 63.7864 19.948 63.7864 17.1103Z" fill="#333333"/>
<path d="M70 17.1092C70 11.8 73.2063 9.2168 76.8151 9.2168C79.0979 9.2168 80.6039 10.0303 81.7287 11.5955H82.0152L82.3041 9.62117H86.0029V24.6067H82.3041L82.0152 22.5801H81.7287C80.6015 24.1762 79.1239 24.9897 76.8151 24.9897C73.2063 24.9968 70 22.385 70 17.1092ZM82.1005 17.1092C82.1005 14.2548 80.4429 12.5255 78.0749 12.5255C75.7637 12.5255 74.0895 14.0645 74.0895 17.1092C74.0895 20.1538 75.7637 21.6952 78.0749 21.6952C80.4571 21.6881 82.1005 19.9469 82.1005 17.1092Z" fill="#333333"/>
<path d="M88.8359 24.5908V21.1656L96.6645 13.3326V13.0425H88.8359V9.61719H101.95V13.0425L94.1497 20.8754V21.1656H101.95V24.5908H88.8359Z" fill="#333333"/>
<path d="M104.203 24.5908V21.1656L112.032 13.3326V13.0425H104.203V9.61719H117.319V13.0425L109.519 20.8754V21.1656H117.319V24.5908H104.203Z" fill="#333333"/>
<path d="M120.15 24.5911V3.87305H124.176V24.5911H120.15Z" fill="#333333"/>
<path d="M127.228 5.46577C127.228 5.00049 127.365 4.54566 127.623 4.1588C127.88 3.77193 128.246 3.47041 128.674 3.29236C129.102 3.1143 129.573 3.06771 130.027 3.15848C130.481 3.24926 130.898 3.4733 131.226 3.80231C131.554 4.13131 131.777 4.55048 131.867 5.00682C131.957 5.46316 131.911 5.93616 131.734 6.36602C131.556 6.79588 131.256 7.1633 130.871 7.4218C130.486 7.68029 130.033 7.81826 129.57 7.81826C129.259 7.82958 128.95 7.77647 128.661 7.66225C128.371 7.54803 128.109 7.37516 127.889 7.15442C127.669 6.93367 127.497 6.66979 127.383 6.37925C127.27 6.08871 127.217 5.77775 127.228 5.46577ZM127.576 24.5902V9.60463H131.602V24.5902H127.576Z" fill="#333333"/>
<path d="M135 24.5909V16.2656C135 11.3323 137.889 9.21289 142.578 9.21289C147.266 9.21289 150.155 11.2728 150.155 16.2061V24.5933H146.151V16.2038C146.151 13.8536 144.91 12.6358 142.568 12.6358C140.226 12.6358 139.016 13.8822 139.016 16.2632V24.5885L135 24.5909Z" fill="#333333"/>
<path d="M153.547 24.5911V3.87305H157.572V15.4785H157.861L163.118 9.6175H167.914L161.589 16.3776L168.001 24.5911H163.028L157.857 17.8595H157.568V24.5911H153.547Z" fill="#333333"/>
<path fill-rule="evenodd" clip-rule="evenodd" d="M16.2025 0C17.6883 0.019781 19.1576 0.247263 20.5677 0.672555C19.9088 0.939599 19.2664 1.2495 18.6437 1.60226C16.2321 2.97375 14.2192 4.95185 12.8025 7.34206C12.6081 7.67504 12.4236 8.01132 12.2556 8.35749C12.1798 8.39375 12.1041 8.43332 12.0283 8.47288C10.6808 9.185 9.55082 10.2466 8.76013 11.5521C7.96945 12.8544 7.55104 14.3511 7.54445 15.8743V31.7387H0V15.871C0 7.11788 7.14252 0.00329704 15.9521 0.00329704H16.2025V0Z" fill="#5353D3"/>
<path d="M27.1756 0.00990224L27.169 1.124e-05C24.3951 -0.00328556 21.6672 0.718714 19.2557 2.09018C16.8408 3.46495 14.8312 5.44303 13.4146 7.82991C11.9386 10.3355 11.1908 13.1773 11.2204 16.0422C11.2138 16.2829 11.1941 16.5236 11.2435 16.7511C11.2435 16.7544 11.2435 16.7576 11.2435 16.7642C11.26 17.0478 11.283 17.3313 11.3127 17.6148C11.3193 17.6972 11.3291 17.7797 11.339 17.8588C11.3423 17.8753 11.3456 17.8917 11.3456 17.9082C11.372 18.106 11.4016 18.3038 11.4346 18.5017C11.4774 18.7852 11.5235 19.0654 11.5861 19.3456C11.8793 20.6742 12.7359 22.5633 13.0225 23.2194C13.5595 23.315 15.1046 23.5655 17.5261 23.0809C19.4171 22.7018 20.4186 22.0325 20.9095 21.5083C20.9029 21.4952 20.893 21.482 20.8831 21.4688C20.7514 21.3105 20.6163 21.1556 20.4878 20.994C19.8322 20.1632 19.3874 19.2269 19.1008 18.2115C18.9526 17.6906 18.8504 17.1632 18.8142 16.6258C18.7681 15.9269 18.8142 15.2345 18.9262 14.5356C19.0283 13.9026 19.2721 13.174 19.4863 12.6136C19.8553 11.6377 20.412 10.741 21.1401 9.99261C21.1731 9.95965 21.206 9.92338 21.2389 9.89041C21.374 9.75524 21.5124 9.62997 21.6573 9.50469C23.097 8.2519 25.0573 7.59254 26.968 7.51672H29.6366L35.5798 0.00660524H27.1756V0.00990224Z" fill="#FF99EA"/>
<path d="M43.1279 0.00976562H35.5802V7.52656V15.8939C35.5736 17.4072 35.175 18.9567 34.437 20.259C34.1471 20.77 33.8012 21.2513 33.4025 21.7063C32.8095 22.3821 31.2479 23.3943 31.1622 23.4371C31.0733 23.6053 30.8921 23.9481 30.7438 24.202C30.6615 24.3569 30.5791 24.5086 30.4902 24.6602C30.0026 25.491 29.4326 26.2625 28.8067 26.9878C28.5431 27.301 28.2631 27.6076 27.9666 27.901C27.6964 28.1714 27.4098 28.4318 27.1166 28.6758C26.8925 28.8637 26.6619 29.0483 26.4313 29.2264C24.9949 30.3671 23.9736 30.8814 22.4219 31.3232C22.4219 31.3232 22.4548 31.3396 22.4614 31.3429C23.1104 31.5737 24.2306 31.7484 25.0806 31.8704C25.8548 31.9792 26.6323 32.0056 27.4131 31.999C27.5844 31.999 27.759 32.0023 27.9303 31.9924C28.2828 31.9726 28.6419 31.9627 28.9912 31.91C29.4754 31.8375 29.963 31.7616 30.444 31.6627C31.6531 31.4155 32.8095 31.0198 33.9263 30.5055C34.6347 30.1791 35.3068 29.7802 35.9624 29.3549C36.5982 28.9395 37.2044 28.4879 37.7579 27.9703C38.4398 27.3373 39.0955 26.6779 39.6687 25.9427C40.2584 25.191 40.7822 24.3998 41.2303 23.5591C41.7607 22.5634 42.1791 21.5216 42.4855 20.437C42.5613 20.1732 42.6305 19.8469 42.6931 19.5798C42.9764 18.3962 43.1279 17.1632 43.1279 15.8939V0.00976562Z" fill="#FF99EA"/>
<path d="M31.9731 15.7851C31.9731 14.5224 31.7985 13.1443 31.502 11.9179L31.4987 11.9278C31.1725 10.6289 30.6816 9.37938 30.0359 8.20902C30.0359 8.20902 28.9817 8.14308 27.2587 8.21231C25.3709 8.37386 23.5853 8.95409 22.1983 10.1278C22.7255 10.6981 23.1735 11.3377 23.526 12.0333C24.3167 13.6026 24.5934 15.3861 24.3134 17.1203C24.1487 18.139 23.7962 19.1115 23.2822 19.9885H23.2855C22.9594 20.539 22.564 21.0566 22.116 21.5446C21.1672 22.5765 19.9976 23.2556 18.6667 23.6743C17.7277 23.9677 16.7625 24.0996 15.7873 24.1457C15.1679 24.1754 14.5453 24.1622 13.9259 24.1688C13.8337 24.1688 13.7414 24.1688 13.6492 24.1655C13.636 24.1655 13.6228 24.1655 13.6096 24.1688L7.5412 31.735C7.5972 31.735 11.0202 31.7383 12.3446 31.7383C13.5866 31.7383 14.8253 31.7383 16.0673 31.7383C17.138 31.7416 18.1988 31.6295 19.2465 31.4119C22.3334 30.7723 25.002 29.3448 27.2488 27.1392C28.7511 25.6656 29.9107 23.9512 30.7311 22.0127C31.3076 20.6445 31.6865 19.2302 31.8578 17.7664C31.8644 17.7664 31.9764 16.4477 31.9731 15.7851Z" fill="#5353D3"/>
</g>
<defs>
<clipPath id="clip0_11152_38598">
<rect width="168" height="32" fill="white"/>
</clipPath>
</defs>
</svg>
