<svg width="140" height="48" viewBox="0 0 140 48" fill="none" xmlns="http://www.w3.org/2000/svg">
<rect width="140" height="48" rx="12" fill="black"/>
<path d="M53.008 28H55.332L51.412 18.382H49.102L45.182 28H47.492L48.108 26.488H52.392L53.008 28ZM48.822 24.738L50.25 21.224L51.678 24.738H48.822ZM60.8757 20.594C59.8677 20.594 59.0277 21.028 58.4537 21.77V20.762H56.4097V30.408H58.4537V26.978C59.0277 27.734 59.8677 28.168 60.8757 28.168C62.8077 28.168 64.2077 26.6 64.2077 24.374C64.2077 22.162 62.8077 20.594 60.8757 20.594ZM60.2877 26.446C59.2937 26.446 58.5657 25.718 58.4537 24.654V24.094C58.5657 23.044 59.2937 22.316 60.2877 22.316C61.4217 22.316 62.2197 23.17 62.2197 24.374C62.2197 25.592 61.4217 26.446 60.2877 26.446ZM70.1179 20.594C69.1099 20.594 68.2699 21.028 67.6959 21.77V20.762H65.6519V30.408H67.6959V26.978C68.2699 27.734 69.1099 28.168 70.1179 28.168C72.0499 28.168 73.4499 26.6 73.4499 24.374C73.4499 22.162 72.0499 20.594 70.1179 20.594ZM69.5299 26.446C68.5359 26.446 67.8079 25.718 67.6959 24.654V24.094C67.8079 23.044 68.5359 22.316 69.5299 22.316C70.6639 22.316 71.4619 23.17 71.4619 24.374C71.4619 25.592 70.6639 26.446 69.5299 26.446ZM83.2702 24.206H85.5102V25.676C84.9642 26.068 84.2922 26.292 83.6342 26.292C81.9962 26.292 80.6102 24.864 80.6102 23.184C80.6102 21.518 81.9962 20.09 83.6342 20.09C84.5162 20.09 85.4542 20.51 86.0282 21.168L87.5262 19.824C86.5602 18.816 85.0762 18.214 83.6342 18.214C80.8482 18.214 78.4822 20.482 78.4822 23.184C78.4822 25.886 80.8482 28.168 83.6342 28.168C85.0762 28.168 86.5602 27.566 87.5262 26.558V22.596H83.2702V24.206ZM92.4425 20.594C91.4345 20.594 90.4405 20.874 89.4185 21.392L90.1045 22.75C90.6785 22.456 91.3085 22.232 91.9805 22.232C93.1705 22.232 93.6465 22.904 93.6465 23.674V23.814C93.0305 23.576 92.3865 23.45 91.7985 23.45C90.1185 23.45 88.7885 24.43 88.7885 25.858C88.7885 27.244 89.9785 28.168 91.5185 28.168C92.3025 28.168 93.1285 27.86 93.6465 27.272V28H95.6205V23.674C95.6205 21.784 94.3325 20.594 92.4425 20.594ZM91.9805 26.754C91.2805 26.754 90.7625 26.39 90.7625 25.802C90.7625 25.214 91.3505 24.78 92.0925 24.78C92.6525 24.78 93.1845 24.878 93.6465 25.046V25.718C93.5065 26.39 92.7645 26.754 91.9805 26.754ZM97.3433 28H99.3873V18.214H97.3433V28ZM101.171 28H103.215V18.214H101.171V28ZM108.416 26.362C107.562 26.362 106.932 25.83 106.694 25.046H111.916C111.916 22.316 110.586 20.594 108.318 20.594C106.204 20.594 104.594 22.176 104.594 24.36C104.594 26.586 106.274 28.168 108.43 28.168C109.494 28.168 110.74 27.72 111.384 27.048L110.082 25.718C109.69 26.096 108.99 26.362 108.416 26.362ZM108.402 22.4C109.228 22.4 109.76 22.862 109.956 23.576H106.722C106.988 22.848 107.632 22.4 108.402 22.4ZM115.342 22.106V20.762H113.298V28H115.342V24.542C115.342 23.184 116.308 22.316 117.82 22.316V20.594C116.714 20.594 115.818 21.168 115.342 22.106ZM120.652 30.52C121.786 30.52 122.71 29.778 123.256 28.364L126.224 20.762H124.138L122.332 25.844L120.428 20.762H118.314L121.324 28.07L121.072 28.602C120.918 28.868 120.61 28.994 120.218 28.994C119.98 28.994 119.616 28.868 119.266 28.672L118.832 30.072C119.322 30.338 120.05 30.52 120.652 30.52Z" fill="white"/>
<path fill-rule="evenodd" clip-rule="evenodd" d="M32.2059 11.0007H21.1275C15.9088 11.0007 14 12.9095 14 18.1281V29.2067C14 34.4252 15.9088 36.334 21.1275 36.334H32.2024C37.4211 36.334 39.3333 34.4252 39.3333 29.2067V18.1281C39.3333 12.9095 37.4245 11.0007 32.2059 11.0007Z" fill="#C91C2E"/>
<path d="M25.0522 25.6929H26.0682L25.5586 24.5078L25.0522 25.6929ZM24.8021 26.2903L24.5007 26.9799H23.8146L25.2738 23.6696H25.8666L27.3199 26.9799H26.6154L26.3178 26.2903H24.8021ZM35.8429 26.9776H36.5061V23.6696H35.8429V26.9776ZM33.2037 25.5561H34.4258V24.9533H33.2037V24.2752H34.9778V23.6716H32.5407V26.9796H35.0418V26.3762H33.2037V25.5561ZM30.5688 25.9471L29.8167 23.6695H29.2685L28.5165 25.9471L27.7847 23.671H27.0695L28.2239 26.9814H28.7802L29.5333 24.807L30.2861 26.9814H30.8474L31.9989 23.671H31.3021L30.5688 25.9471ZM22.8023 25.5653C22.8023 26.1038 22.5349 26.3915 22.0493 26.3915C21.561 26.3915 21.2922 26.0957 21.2922 25.5424V23.6714H20.6202V25.5653C20.6202 26.4971 21.1378 27.0312 22.0402 27.0312C22.9514 27.0312 23.4741 26.4868 23.4741 25.5379V23.6695H22.8023V25.5653ZM19.0167 23.6696H19.6885V26.9816H19.0167V25.6367H17.4991V26.9816H16.8271V23.6696H17.4991V25.0057H19.0167V23.6696Z" fill="white"/>
<path d="M26.667 19.4512C24.3419 19.4512 22.4502 17.5594 22.4502 15.2343H23.0459C23.0459 17.231 24.6702 18.8555 26.667 18.8555C28.6638 18.8555 30.2881 17.231 30.2881 15.2343H30.8838C30.8838 17.5594 28.9921 19.4512 26.667 19.4512Z" fill="white"/>
</svg>
