<svg width="200" height="38" viewBox="0 0 200 38" fill="none" xmlns="http://www.w3.org/2000/svg">
<g clip-path="url(#clip0_1729_22671)">
<path d="M51.3378 0.107422V19.058C51.3378 29.5092 42.8215 38.0001 32.3177 38.0001H32.0161C28.8111 37.9568 25.6693 37.1017 22.8829 35.5143C20.0965 33.927 17.7563 31.6591 16.08 28.9217C15.0583 27.2608 14.3021 25.4499 13.8389 23.5549C14.8513 19.4717 17.1841 15.8392 20.4733 13.224C23.7626 10.6089 27.8232 9.15818 32.0217 9.09829C29.7068 9.16314 27.486 10.0307 25.7381 11.5529C25.5633 11.7026 25.3998 11.8523 25.2391 12.0133C23.752 13.4934 22.7705 15.4072 22.4353 17.4804C22.1 19.5536 22.4283 21.68 23.3729 23.5549C23.933 24.6583 24.6918 25.6485 25.6112 26.4755C25.9543 26.7824 26.3179 27.0655 26.6994 27.3229C28.201 28.3467 29.9524 28.9417 31.7658 29.0441C33.5792 29.1466 35.3863 28.7526 36.9932 27.9044C38.6002 27.0562 39.9465 25.7858 40.8878 24.2294C41.8291 22.673 42.3299 20.8892 42.3366 19.0693V9.08133V0.107422H51.3378Z" fill="url(#paint0_linear_1729_22671)"/>
<path d="M37.5046 14.4594C36.4922 18.5425 34.1594 22.1751 30.8701 24.7902C27.5809 27.4054 23.5202 28.8561 19.3217 28.916C21.6365 28.85 23.8569 27.9826 25.6054 26.4613C25.7802 26.3116 25.9437 26.1619 26.1044 26.0009C27.5915 24.5208 28.573 22.6071 28.9082 20.5338C29.2434 18.4606 28.9152 16.3343 27.9706 14.4594C27.4105 13.3559 26.6516 12.3657 25.7323 11.5387C25.3891 11.2319 25.0256 10.9487 24.6441 10.6913C23.1418 9.6679 21.3899 9.07331 19.5761 8.9712C17.7623 8.86909 15.9549 9.26332 14.3477 10.1117C12.7404 10.96 11.3937 12.2305 10.4519 13.787C9.51006 15.3436 9.0086 17.1275 9.00122 18.9478V37.8871H0V18.9449C0 8.49373 8.51634 0 19.0201 0H19.3217C22.5245 0.0436027 25.6642 0.898017 28.449 2.48379C31.2337 4.06955 33.573 6.33517 35.2494 9.06995C36.2792 10.7365 37.0403 12.5553 37.5046 14.4594Z" fill="url(#paint1_linear_1729_22671)"/>
<path d="M32.3178 0.107013H42.3197L35.2496 9.07246H32.0077C27.8083 9.12898 23.746 10.5784 20.4561 13.1941C17.1662 15.8098 14.8342 19.4442 13.8248 23.529C12.6657 18.7403 13.414 13.6876 15.9109 9.44248C17.5987 6.59171 19.9985 4.2306 22.8739 2.59167C25.7493 0.952738 29.0012 0.0925161 32.3093 0.095712L32.3178 0.107013Z" fill="#F99BF0"/>
<path d="M38.0376 18.9449C38.0436 22.324 37.1388 25.6421 35.4187 28.5487C33.7327 31.4008 31.3332 33.7629 28.4573 35.4016C25.5815 37.0403 22.3287 37.8989 19.0204 37.8926H9.00146L16.0801 28.9243H19.322C23.521 28.8664 27.5826 27.4164 30.8722 24.8009C34.1618 22.1855 36.4942 18.5519 37.5048 14.4678C37.8586 15.9338 38.0374 17.4366 38.0376 18.9449Z" fill="#5353D3"/>
<path d="M61.5283 20.3178C61.5283 14.0471 65.3453 10.9456 69.6444 10.9456C72.3619 10.9456 74.1548 11.8778 75.4911 13.7703H75.835V4.59863H80.5794V29.2014H76.1789L75.835 26.8145H75.4911C74.1492 28.676 72.3901 29.6759 69.6444 29.6759C65.3453 29.6844 61.5283 26.6168 61.5283 20.3178ZM75.9365 20.3178C75.9365 16.9282 73.9631 14.8747 71.1441 14.8747C68.3927 14.8747 66.3968 16.7023 66.3968 20.3178C66.3968 23.9334 68.3927 25.7638 71.1441 25.7638C73.9772 25.7553 75.9365 23.6876 75.9365 20.3178Z" fill="#262F66"/>
<path d="M83.334 20.3175C83.334 14.0129 87.151 10.9453 91.4472 10.9453C94.1648 10.9453 95.9577 11.9113 97.2967 13.77H97.6378L97.9817 11.4255H102.385V29.2208H97.9817L97.6378 26.8142H97.2967C95.9549 28.7095 94.1958 29.6756 91.4472 29.6756C87.151 29.6841 83.334 26.5826 83.334 20.3175ZM97.7393 20.3175C97.7393 16.9279 95.766 14.8744 92.9469 14.8744C90.1955 14.8744 88.2025 16.702 88.2025 20.3175C88.2025 23.9331 90.1955 25.7634 92.9469 25.7634C95.7829 25.755 97.7393 23.6873 97.7393 20.3175Z" fill="#262F66"/>
<path d="M105.756 29.2011V25.1336L115.076 15.832V15.4874H105.756V11.4199H121.368V15.4874L112.082 24.789V25.1336H121.368V29.2011H105.756Z" fill="#262F66"/>
<path d="M124.052 29.2011V25.1336L133.372 15.832V15.4874H124.052V11.4199H139.667V15.4874L130.381 24.789V25.1336H139.667V29.2011H124.052Z" fill="#262F66"/>
<path d="M143.036 29.2014V4.59863H147.828V29.2014H143.036Z" fill="#262F66"/>
<path d="M151.462 6.49084C151.462 5.93832 151.625 5.39822 151.932 4.93882C152.238 4.47942 152.673 4.12136 153.183 3.90992C153.692 3.69848 154.253 3.64315 154.794 3.75094C155.335 3.85874 155.831 4.12479 156.221 4.51548C156.611 4.90617 156.877 5.40394 156.984 5.94584C157.092 6.48774 157.037 7.04944 156.826 7.5599C156.615 8.07036 156.257 8.50667 155.799 8.81363C155.34 9.12059 154.801 9.28443 154.25 9.28443C153.88 9.29787 153.511 9.2348 153.167 9.09916C152.823 8.96353 152.51 8.75825 152.248 8.49612C151.987 8.23398 151.782 7.92062 151.647 7.5756C151.511 7.23059 151.448 6.86132 151.462 6.49084ZM151.876 29.2011V11.4057H156.669V29.2011H151.876Z" fill="#262F66"/>
<path d="M160.714 29.2008V19.3146C160.714 13.4562 164.153 10.9395 169.735 10.9395C175.317 10.9395 178.756 13.3856 178.756 19.2439V29.2037H173.989V19.2411C173.989 16.4504 172.512 15.0041 169.724 15.0041C166.935 15.0041 165.495 16.4842 165.495 19.3117V29.198L160.714 29.2008Z" fill="#262F66"/>
<path d="M182.792 29.2014V4.59863H187.585V18.3801H187.929L194.187 11.4202H199.896L192.366 19.4478L200 29.2014H194.08L187.923 21.2076H187.579V29.2014H182.792Z" fill="#262F66"/>
</g>
<defs>
<linearGradient id="paint0_linear_1729_22671" x1="13.8332" y1="19.0552" x2="51.3378" y2="19.0552" gradientUnits="userSpaceOnUse">
<stop stop-color="#7E2EB7"/>
<stop offset="0.62" stop-color="#FF99EC"/>
</linearGradient>
<linearGradient id="paint1_linear_1729_22671" x1="55.6254" y1="16.2079" x2="12.2819" y2="19.0242" gradientUnits="userSpaceOnUse">
<stop offset="0.23" stop-color="#2C2C84"/>
<stop offset="1" stop-color="#4A4AC6"/>
</linearGradient>
<clipPath id="clip0_1729_22671">
<rect width="200" height="38" fill="white"/>
</clipPath>
</defs>
</svg>
