<svg width="140" height="48" viewBox="0 0 140 48" fill="none" xmlns="http://www.w3.org/2000/svg">
<rect width="140" height="48" rx="12" fill="black"/>
<path d="M48.362 24.206H50.602V25.676C50.056 26.068 49.384 26.292 48.726 26.292C47.088 26.292 45.702 24.864 45.702 23.184C45.702 21.518 47.088 20.09 48.726 20.09C49.608 20.09 50.546 20.51 51.12 21.168L52.618 19.824C51.652 18.816 50.168 18.214 48.726 18.214C45.94 18.214 43.574 20.482 43.574 23.184C43.574 25.886 45.94 28.168 48.726 28.168C50.168 28.168 51.652 27.566 52.618 26.558V22.596H48.362V24.206ZM57.8563 28.168C59.9983 28.168 61.7903 26.432 61.7903 24.374C61.7903 22.316 59.9983 20.594 57.8563 20.594C55.7003 20.594 53.8943 22.316 53.8943 24.374C53.8943 26.432 55.7003 28.168 57.8563 28.168ZM57.8563 26.446C56.7643 26.446 55.8543 25.494 55.8543 24.374C55.8543 23.254 56.7643 22.316 57.8563 22.316C58.9343 22.316 59.8443 23.254 59.8443 24.374C59.8443 25.494 58.9343 26.446 57.8563 26.446ZM66.7293 28.168C68.8713 28.168 70.6633 26.432 70.6633 24.374C70.6633 22.316 68.8713 20.594 66.7293 20.594C64.5733 20.594 62.7673 22.316 62.7673 24.374C62.7673 26.432 64.5733 28.168 66.7293 28.168ZM66.7293 26.446C65.6373 26.446 64.7273 25.494 64.7273 24.374C64.7273 23.254 65.6373 22.316 66.7293 22.316C67.8073 22.316 68.7173 23.254 68.7173 24.374C68.7173 25.494 67.8073 26.446 66.7293 26.446ZM77.2824 20.762V21.742C76.7924 21.056 75.8684 20.594 74.8884 20.594C73.0684 20.594 71.6824 22.008 71.6824 24.024C71.6824 26.04 73.0684 27.468 74.8884 27.468C75.8404 27.468 76.7084 27.048 77.2824 26.348V27.146C77.2824 28.084 76.4424 28.686 75.1264 28.686C74.2864 28.686 73.4464 28.42 72.9704 28L72.2564 29.442C72.9704 30.002 74.1744 30.408 75.4484 30.408C77.7304 30.408 79.3404 29.092 79.3404 27.23V20.762H77.2824ZM75.5324 25.746C74.5104 25.746 73.7824 25.032 73.7824 24.024C73.7824 23.016 74.5104 22.316 75.5324 22.316C76.5544 22.316 77.2824 23.016 77.2824 24.024C77.2824 25.032 76.5544 25.746 75.5324 25.746ZM81.1382 28H83.1822V18.214H81.1382V28ZM88.3823 26.362C87.5283 26.362 86.8983 25.83 86.6603 25.046H91.8823C91.8823 22.316 90.5523 20.594 88.2843 20.594C86.1703 20.594 84.5603 22.176 84.5603 24.36C84.5603 26.586 86.2403 28.168 88.3963 28.168C89.4603 28.168 90.7063 27.72 91.3503 27.048L90.0483 25.718C89.6563 26.096 88.9563 26.362 88.3823 26.362ZM88.3683 22.4C89.1943 22.4 89.7263 22.862 89.9223 23.576H86.6883C86.9543 22.848 87.5983 22.4 88.3683 22.4ZM97.2313 28H99.2893V24.878H101.557C103.643 24.878 105.183 23.534 105.183 21.63C105.183 19.726 103.643 18.382 101.557 18.382H97.2313V28ZM99.2893 22.988V20.272H101.333C102.355 20.272 103.055 20.804 103.055 21.63C103.055 22.456 102.355 22.988 101.333 22.988H99.2893ZM106.417 28H108.461V18.214H106.417V28ZM113.48 20.594C112.472 20.594 111.478 20.874 110.456 21.392L111.142 22.75C111.716 22.456 112.346 22.232 113.018 22.232C114.208 22.232 114.684 22.904 114.684 23.674V23.814C114.068 23.576 113.424 23.45 112.836 23.45C111.156 23.45 109.826 24.43 109.826 25.858C109.826 27.244 111.016 28.168 112.556 28.168C113.34 28.168 114.166 27.86 114.684 27.272V28H116.658V23.674C116.658 21.784 115.37 20.594 113.48 20.594ZM113.018 26.754C112.318 26.754 111.8 26.39 111.8 25.802C111.8 25.214 112.388 24.78 113.13 24.78C113.69 24.78 114.222 24.878 114.684 25.046V25.718C114.544 26.39 113.802 26.754 113.018 26.754ZM120.032 30.52C121.166 30.52 122.09 29.778 122.636 28.364L125.604 20.762H123.518L121.712 25.844L119.808 20.762H117.694L120.704 28.07L120.452 28.602C120.298 28.868 119.99 28.994 119.598 28.994C119.36 28.994 118.996 28.868 118.646 28.672L118.212 30.072C118.702 30.338 119.43 30.52 120.032 30.52Z" fill="white"/>
<g filter="url(#filter0_ii_2809_26784)">
<path d="M13.463 11.3972C13.172 11.7052 13 12.1832 13 12.8022V34.9182C13 35.5382 13.172 36.0152 13.463 36.3232L13.537 36.3952L25.926 24.0062V23.8602V23.7142L13.537 11.3242L13.463 11.3972Z" fill="url(#paint0_linear_2809_26784)"/>
<path d="M30.055 28.137L25.926 24.006V23.86V23.714L30.056 19.584L30.149 19.637L35.042 22.417C36.439 23.211 36.439 24.51 35.042 25.305L30.149 28.085L30.055 28.137Z" fill="url(#paint1_linear_2809_26784)"/>
<g filter="url(#filter1_i_2809_26784)">
<path d="M30.1489 28.0834L25.9249 23.8594L13.4629 36.3224C13.9229 36.8104 14.6839 36.8704 15.5409 36.3844L30.1489 28.0834Z" fill="url(#paint2_linear_2809_26784)"/>
</g>
<path d="M30.1489 19.6361L15.5409 11.3361C14.6839 10.8491 13.9229 10.9101 13.4629 11.3981L25.9259 23.8611L30.1489 19.6361Z" fill="url(#paint3_linear_2809_26784)"/>
</g>
<defs>
<filter id="filter0_ii_2809_26784" x="13" y="11" width="23.0898" height="25.7207" filterUnits="userSpaceOnUse" color-interpolation-filters="sRGB">
<feFlood flood-opacity="0" result="BackgroundImageFix"/>
<feBlend mode="normal" in="SourceGraphic" in2="BackgroundImageFix" result="shape"/>
<feColorMatrix in="SourceAlpha" type="matrix" values="0 0 0 0 0 0 0 0 0 0 0 0 0 0 0 0 0 0 127 0" result="hardAlpha"/>
<feOffset dy="-0.15"/>
<feComposite in2="hardAlpha" operator="arithmetic" k2="-1" k3="1"/>
<feColorMatrix type="matrix" values="0 0 0 0 0 0 0 0 0 0 0 0 0 0 0 0 0 0 0.12 0"/>
<feBlend mode="normal" in2="shape" result="effect1_innerShadow_2809_26784"/>
<feColorMatrix in="SourceAlpha" type="matrix" values="0 0 0 0 0 0 0 0 0 0 0 0 0 0 0 0 0 0 127 0" result="hardAlpha"/>
<feOffset dy="0.15"/>
<feComposite in2="hardAlpha" operator="arithmetic" k2="-1" k3="1"/>
<feColorMatrix type="matrix" values="0 0 0 0 1 0 0 0 0 1 0 0 0 0 1 0 0 0 0.25 0"/>
<feBlend mode="normal" in2="effect1_innerShadow_2809_26784" result="effect2_innerShadow_2809_26784"/>
</filter>
<filter id="filter1_i_2809_26784" x="13.4629" y="23.8594" width="16.686" height="12.8613" filterUnits="userSpaceOnUse" color-interpolation-filters="sRGB">
<feFlood flood-opacity="0" result="BackgroundImageFix"/>
<feBlend mode="normal" in="SourceGraphic" in2="BackgroundImageFix" result="shape"/>
<feColorMatrix in="SourceAlpha" type="matrix" values="0 0 0 0 0 0 0 0 0 0 0 0 0 0 0 0 0 0 127 0" result="hardAlpha"/>
<feOffset dy="-0.15"/>
<feComposite in2="hardAlpha" operator="arithmetic" k2="-1" k3="1"/>
<feColorMatrix type="matrix" values="0 0 0 0 0 0 0 0 0 0 0 0 0 0 0 0 0 0 0.08 0"/>
<feBlend mode="normal" in2="shape" result="effect1_innerShadow_2809_26784"/>
</filter>
<linearGradient id="paint0_linear_2809_26784" x1="24.8278" y1="12.5682" x2="8.0458" y2="29.3502" gradientUnits="userSpaceOnUse">
<stop stop-color="#00A0FF"/>
<stop offset="0.0066" stop-color="#00A1FF"/>
<stop offset="0.2601" stop-color="#00BEFF"/>
<stop offset="0.5122" stop-color="#00D2FF"/>
<stop offset="0.7604" stop-color="#00DFFF"/>
<stop offset="1" stop-color="#00E3FF"/>
</linearGradient>
<linearGradient id="paint1_linear_2809_26784" x1="36.8605" y1="23.86" x2="12.6646" y2="23.86" gradientUnits="userSpaceOnUse">
<stop stop-color="#FFE000"/>
<stop offset="0.4087" stop-color="#FFBD00"/>
<stop offset="0.7754" stop-color="#FFA500"/>
<stop offset="1" stop-color="#FF9C00"/>
</linearGradient>
<linearGradient id="paint2_linear_2809_26784" x1="27.855" y1="26.1533" x2="5.09649" y2="48.9118" gradientUnits="userSpaceOnUse">
<stop stop-color="#FF3A44"/>
<stop offset="1" stop-color="#C31162"/>
</linearGradient>
<linearGradient id="paint3_linear_2809_26784" x1="10.3243" y1="4.03588" x2="20.4866" y2="14.1982" gradientUnits="userSpaceOnUse">
<stop stop-color="#32A071"/>
<stop offset="0.0685" stop-color="#2DA771"/>
<stop offset="0.4762" stop-color="#15CF74"/>
<stop offset="0.8009" stop-color="#06E775"/>
<stop offset="1" stop-color="#00F076"/>
</linearGradient>
</defs>
</svg>
