<svg width="127" height="48" viewBox="0 0 127 48" fill="none" xmlns="http://www.w3.org/2000/svg">
<rect width="127" height="48" rx="12" fill="black"/>
<path d="M30.7045 23.7631C30.729 21.9104 31.7481 20.1574 33.3648 19.187C32.3449 17.7649 30.6366 16.8632 28.8592 16.8089C26.9636 16.6147 25.1258 17.9164 24.1598 17.9164C23.1751 17.9164 21.6878 16.8282 20.0862 16.8604C17.9986 16.9262 16.0524 18.085 15.0368 19.8669C12.8535 23.5573 14.482 28.9809 16.5734 31.964C17.6198 33.4247 18.8427 35.0564 20.4428 34.9985C22.0086 34.9351 22.5935 34.0237 24.4836 34.0237C26.3561 34.0237 26.9048 34.9985 28.5374 34.9617C30.2176 34.9351 31.2762 33.4945 32.2859 32.02C33.0377 30.9791 33.6162 29.8288 34 28.6116C32.0254 27.7962 30.7068 25.8562 30.7045 23.7631Z" fill="white"/>
<path d="M27.6208 14.8471C28.5369 13.7734 28.9882 12.3934 28.8789 11C27.4793 11.1435 26.1864 11.7966 25.2579 12.8291C24.35 13.8379 23.8775 15.1937 23.9668 16.5338C25.3669 16.5479 26.7434 15.9125 27.6208 14.8471Z" fill="white"/>
<path d="M44.6399 31H42.3331L45.848 20.8182H48.6222L52.1321 31H49.8253L47.2749 23.1449H47.1953L44.6399 31ZM44.4957 26.9979H49.9446V28.6783H44.4957V26.9979ZM53.3178 33.8636V23.3636H55.4059V24.6463H55.5004C55.5932 24.4408 55.7274 24.232 55.9031 24.0199C56.082 23.8045 56.314 23.6255 56.5991 23.483C56.8874 23.3371 57.2454 23.2642 57.6729 23.2642C58.2298 23.2642 58.7435 23.41 59.2141 23.7017C59.6848 23.9901 60.061 24.4259 60.3427 25.0092C60.6244 25.5893 60.7653 26.3168 60.7653 27.1918C60.7653 28.0436 60.6277 28.7628 60.3526 29.3494C60.0808 29.9328 59.7096 30.3752 59.239 30.6768C58.7717 30.9751 58.248 31.1243 57.668 31.1243C57.257 31.1243 56.9073 31.0563 56.619 30.9205C56.3339 30.7846 56.1003 30.6139 55.918 30.4084C55.7357 30.1996 55.5965 29.9891 55.5004 29.777H55.4357V33.8636H53.3178ZM55.391 27.1818C55.391 27.6359 55.454 28.032 55.5799 28.37C55.7058 28.7081 55.8881 28.9716 56.1268 29.1605C56.3654 29.3461 56.6554 29.4389 56.9968 29.4389C57.3415 29.4389 57.6332 29.3445 57.8718 29.1555C58.1104 28.9633 58.2911 28.6982 58.4137 28.3601C58.5397 28.0187 58.6026 27.6259 58.6026 27.1818C58.6026 26.741 58.5413 26.3532 58.4187 26.0185C58.296 25.6837 58.1154 25.4219 57.8768 25.233C57.6381 25.044 57.3448 24.9496 56.9968 24.9496C56.6521 24.9496 56.3604 25.0407 56.1218 25.223C55.8865 25.4053 55.7058 25.6638 55.5799 25.9986C55.454 26.3333 55.391 26.7277 55.391 27.1818ZM62.1772 33.8636V23.3636H64.2653V24.6463H64.3597C64.4525 24.4408 64.5868 24.232 64.7624 24.0199C64.9414 23.8045 65.1734 23.6255 65.4585 23.483C65.7468 23.3371 66.1048 23.2642 66.5323 23.2642C67.0891 23.2642 67.6029 23.41 68.0735 23.7017C68.5442 23.9901 68.9203 24.4259 69.2021 25.0092C69.4838 25.5893 69.6246 26.3168 69.6246 27.1918C69.6246 28.0436 69.4871 28.7628 69.212 29.3494C68.9402 29.9328 68.569 30.3752 68.0984 30.6768C67.631 30.9751 67.1074 31.1243 66.5273 31.1243C66.1164 31.1243 65.7667 31.0563 65.4783 30.9205C65.1933 30.7846 64.9596 30.6139 64.7773 30.4084C64.5951 30.1996 64.4558 29.9891 64.3597 29.777H64.2951V33.8636H62.1772ZM64.2504 27.1818C64.2504 27.6359 64.3133 28.032 64.4393 28.37C64.5652 28.7081 64.7475 28.9716 64.9862 29.1605C65.2248 29.3461 65.5148 29.4389 65.8562 29.4389C66.2009 29.4389 66.4925 29.3445 66.7312 29.1555C66.9698 28.9633 67.1504 28.6982 67.2731 28.3601C67.399 28.0187 67.462 27.6259 67.462 27.1818C67.462 26.741 67.4007 26.3532 67.2781 26.0185C67.1554 25.6837 66.9748 25.4219 66.7362 25.233C66.4975 25.044 66.2042 24.9496 65.8562 24.9496C65.5115 24.9496 65.2198 25.0407 64.9812 25.223C64.7459 25.4053 64.5652 25.6638 64.4393 25.9986C64.3133 26.3333 64.2504 26.7277 64.2504 27.1818ZM79.84 23.7464C79.8002 23.3454 79.6296 23.0339 79.3279 22.8118C79.0263 22.5897 78.617 22.4787 78.1 22.4787C77.7486 22.4787 77.452 22.5284 77.21 22.6278C76.9681 22.724 76.7825 22.8582 76.6532 23.0305C76.5273 23.2029 76.4643 23.3984 76.4643 23.6172C76.4577 23.7995 76.4958 23.9586 76.5787 24.0945C76.6648 24.2304 76.7825 24.348 76.9316 24.4474C77.0808 24.5436 77.2531 24.6281 77.4487 24.701C77.6442 24.7706 77.853 24.8303 78.0751 24.88L78.9899 25.0987C79.434 25.1982 79.8417 25.3307 80.2129 25.4964C80.5841 25.6622 80.9056 25.866 81.1774 26.108C81.4492 26.3499 81.6596 26.6349 81.8088 26.9631C81.9612 27.2912 82.0391 27.6674 82.0424 28.0916C82.0391 28.7147 81.88 29.255 81.5652 29.7124C81.2536 30.1664 80.8029 30.5194 80.2129 30.7713C79.6262 31.0199 78.9186 31.1442 78.09 31.1442C77.2681 31.1442 76.5521 31.0182 75.9423 30.7663C75.3358 30.5144 74.8618 30.1416 74.5204 29.6477C74.1824 29.1506 74.005 28.5357 73.9885 27.8033H76.0716C76.0948 28.1446 76.1925 28.4297 76.3649 28.6584C76.5405 28.8838 76.7742 29.0545 77.0659 29.1705C77.3609 29.2831 77.694 29.3395 78.0652 29.3395C78.4297 29.3395 78.7463 29.2865 79.0147 29.1804C79.2865 29.0743 79.497 28.9268 79.6461 28.7379C79.7953 28.549 79.8699 28.3319 79.8699 28.0866C79.8699 27.858 79.8019 27.6657 79.666 27.5099C79.5334 27.3542 79.3379 27.2216 79.0794 27.1122C78.8242 27.0028 78.5109 26.9034 78.1397 26.8139L77.0311 26.5355C76.1726 26.3267 75.4949 26.0002 74.9977 25.5561C74.5005 25.112 74.2536 24.5137 74.2569 23.7614C74.2536 23.1449 74.4177 22.6063 74.7491 22.1456C75.0839 21.6849 75.5429 21.3253 76.1262 21.0668C76.7096 20.8082 77.3725 20.679 78.1149 20.679C78.8706 20.679 79.5301 20.8082 80.0936 21.0668C80.6603 21.3253 81.1011 21.6849 81.416 22.1456C81.7309 22.6063 81.8933 23.1399 81.9032 23.7464H79.84ZM87.5124 23.3636V24.9545H82.9137V23.3636H87.5124ZM83.9577 21.5341H86.0756V28.6534C86.0756 28.849 86.1055 29.0014 86.1651 29.1108C86.2248 29.2169 86.3076 29.2914 86.4137 29.3345C86.5231 29.3776 86.649 29.3991 86.7915 29.3991C86.891 29.3991 86.9904 29.3909 87.0898 29.3743C87.1893 29.3544 87.2655 29.3395 87.3185 29.3295L87.6516 30.9055C87.5456 30.9387 87.3964 30.9768 87.2042 31.0199C87.012 31.0663 86.7783 31.0945 86.5032 31.1044C85.9928 31.1243 85.5453 31.0563 85.1609 30.9006C84.7797 30.7448 84.4831 30.5028 84.271 30.1747C84.0588 29.8466 83.9544 29.4323 83.9577 28.9318V21.5341ZM92.2603 31.1491C91.488 31.1491 90.8202 30.9851 90.2567 30.657C89.6966 30.3255 89.2641 29.8648 88.9592 29.2749C88.6542 28.6816 88.5018 27.9938 88.5018 27.2116C88.5018 26.4228 88.6542 25.7334 88.9592 25.1435C89.2641 24.5502 89.6966 24.0895 90.2567 23.7614C90.8202 23.4299 91.488 23.2642 92.2603 23.2642C93.0326 23.2642 93.6987 23.4299 94.2589 23.7614C94.8223 24.0895 95.2565 24.5502 95.5614 25.1435C95.8664 25.7334 96.0188 26.4228 96.0188 27.2116C96.0188 27.9938 95.8664 28.6816 95.5614 29.2749C95.2565 29.8648 94.8223 30.3255 94.2589 30.657C93.6987 30.9851 93.0326 31.1491 92.2603 31.1491ZM92.2702 29.5085C92.6216 29.5085 92.9149 29.4091 93.1502 29.2102C93.3855 29.008 93.5629 28.733 93.6822 28.3849C93.8048 28.0369 93.8661 27.6409 93.8661 27.1967C93.8661 26.7526 93.8048 26.3565 93.6822 26.0085C93.5629 25.6605 93.3855 25.3854 93.1502 25.1832C92.9149 24.9811 92.6216 24.88 92.2702 24.88C91.9156 24.88 91.6173 24.9811 91.3754 25.1832C91.1367 25.3854 90.9561 25.6605 90.8335 26.0085C90.7141 26.3565 90.6545 26.7526 90.6545 27.1967C90.6545 27.6409 90.7141 28.0369 90.8335 28.3849C90.9561 28.733 91.1367 29.008 91.3754 29.2102C91.6173 29.4091 91.9156 29.5085 92.2702 29.5085ZM97.396 31V23.3636H99.4492V24.696H99.5288C99.668 24.2221 99.9016 23.8641 100.23 23.6222C100.558 23.3769 100.936 23.2543 101.363 23.2543C101.469 23.2543 101.584 23.2609 101.706 23.2741C101.829 23.2874 101.937 23.3056 102.029 23.3288V25.2081C101.93 25.1783 101.792 25.1518 101.617 25.1286C101.441 25.1054 101.28 25.0938 101.135 25.0938C100.823 25.0938 100.545 25.1617 100.299 25.2976C100.057 25.4302 99.8652 25.6158 99.7227 25.8544C99.5835 26.093 99.5138 26.3681 99.5138 26.6797V31H97.396ZM106.249 31.1491C105.464 31.1491 104.787 30.9901 104.221 30.6719C103.657 30.3504 103.223 29.8963 102.918 29.3097C102.613 28.7197 102.461 28.022 102.461 27.2166C102.461 26.4311 102.613 25.7417 102.918 25.1484C103.223 24.5552 103.652 24.0928 104.206 23.7614C104.763 23.4299 105.416 23.2642 106.165 23.2642C106.668 23.2642 107.137 23.3454 107.572 23.5078C108.009 23.6669 108.39 23.9072 108.715 24.2287C109.043 24.5502 109.298 24.9545 109.481 25.4418C109.663 25.9257 109.754 26.4924 109.754 27.142V27.7237H103.306V26.4112H107.76C107.76 26.1063 107.694 25.8362 107.562 25.6009C107.429 25.3655 107.245 25.1816 107.01 25.049C106.778 24.9131 106.508 24.8452 106.199 24.8452C105.878 24.8452 105.593 24.9197 105.344 25.0689C105.099 25.2147 104.907 25.4119 104.768 25.6605C104.628 25.9058 104.557 26.1792 104.554 26.4808V27.7287C104.554 28.1065 104.623 28.433 104.763 28.7081C104.905 28.9832 105.106 29.1953 105.364 29.3445C105.623 29.4936 105.929 29.5682 106.284 29.5682C106.519 29.5682 106.735 29.535 106.93 29.4688C107.126 29.4025 107.293 29.303 107.432 29.1705C107.572 29.0379 107.678 28.8755 107.751 28.6832L109.709 28.8125C109.61 29.2831 109.406 29.6941 109.098 30.0455C108.793 30.3935 108.398 30.6652 107.915 30.8608C107.434 31.053 106.879 31.1491 106.249 31.1491Z" fill="white"/>
</svg>
