<svg width="16" height="16" viewBox="0 0 16 16" fill="none" xmlns="http://www.w3.org/2000/svg">
<path d="M1.27344 7.22656C0.859375 7.22656 0.554688 6.90625 0.554688 6.5V2.16406C0.554688 1.36719 1.01562 0.90625 1.8125 0.90625H6.14844C6.57031 0.90625 6.88281 1.20312 6.88281 1.625C6.88281 2.04688 6.5625 2.33594 6.14844 2.33594H5.5L2.76562 2.17969L4.92969 4.23438L7.34375 6.64062C7.48438 6.78125 7.55469 6.96875 7.55469 7.17969C7.55469 7.61719 7.22656 7.90625 6.78125 7.90625C6.59375 7.90625 6.42188 7.84375 6.28906 7.70312L3.88281 5.28125L1.82812 3.11719L1.98438 5.84375V6.5C1.98438 6.91406 1.6875 7.22656 1.27344 7.22656ZM9.84375 15.8125C9.42969 15.8125 9.10938 15.5156 9.10938 15.0938C9.10938 14.6719 9.42969 14.3828 9.84375 14.3828H10.5L13.2344 14.5391L11.0625 12.4844L8.65625 10.0781C8.51562 9.9375 8.4375 9.75 8.4375 9.53906C8.4375 9.10156 8.77344 8.8125 9.21094 8.8125C9.39844 8.8125 9.57812 8.875 9.71094 9.01562L12.1094 11.4375L14.1719 13.6016L14.0078 10.875V10.2188C14.0078 9.80469 14.3125 9.49219 14.7188 9.49219C15.1406 9.49219 15.4453 9.8125 15.4453 10.2188V14.5547C15.4453 15.3516 14.9766 15.8125 14.1797 15.8125H9.84375Z" fill="white"/>
</svg>
