<svg width="12" height="8" viewBox="0 0 12 8" fill="none" xmlns="http://www.w3.org/2000/svg">
<path d="M4.72502 5.41641L2.57502 3.26641C2.39169 3.08307 2.15836 2.99141 1.87502 2.99141C1.59169 2.99141 1.35836 3.08307 1.17502 3.26641C0.991691 3.44974 0.900024 3.68307 0.900024 3.96641C0.900024 4.24974 0.991691 4.48307 1.17502 4.66641L4.02502 7.51641C4.22502 7.71641 4.45836 7.81641 4.72502 7.81641C4.99169 7.81641 5.22502 7.71641 5.42502 7.51641L11.075 1.86641C11.2584 1.68307 11.35 1.44974 11.35 1.16641C11.35 0.883073 11.2584 0.64974 11.075 0.466406C10.8917 0.283073 10.6584 0.191406 10.375 0.191406C10.0917 0.191406 9.85836 0.283073 9.67502 0.466406L4.72502 5.41641Z" fill="#333333"/>
</svg>
